<svg width="31" height="24" viewBox="0 0 31 24" fill="none" xmlns="http://www.w3.org/2000/svg">
<g clip-path="url(#clip0_2_2664)">
<path d="M15.0924 2C21.9782 2 27.5666 6.48 27.5666 12C27.5666 17.52 21.9782 22 15.0924 22C8.20662 22 2.61816 17.52 2.61816 12C2.61816 6.48 8.20662 2 15.0924 2ZM15.0924 4C9.57878 4 5.11301 7.58 5.11301 12C5.11301 16.42 9.57878 20 15.0924 20C20.606 20 25.0718 16.42 25.0718 12C25.0718 7.58 20.606 4 15.0924 4ZM15.0924 7C17.3627 7 19.3498 7.973 20.4413 9.428L18.3033 10.457C17.9668 10.0072 17.4891 9.63605 16.9179 9.38045C16.3466 9.12484 15.7018 8.99374 15.0476 9.00023C14.3935 9.00672 13.7529 9.15056 13.1897 9.41742C12.6265 9.68428 12.1605 10.0648 11.838 10.5211C11.5155 10.9774 11.3478 11.4935 11.3517 12.0179C11.3556 12.5424 11.531 13.0568 11.8603 13.51C12.1895 13.9632 12.6613 14.3392 13.2284 14.6007C13.7955 14.8621 14.4382 14.9998 15.0924 15C15.7387 15.0003 16.3741 14.8664 16.9366 14.6112C17.4992 14.356 17.9696 13.9883 18.302 13.544L20.4413 14.572C19.7403 15.5106 18.6745 16.239 17.4075 16.6453C16.1405 17.0517 14.7421 17.1137 13.427 16.8217C12.1118 16.5298 10.9524 15.9 10.1266 15.029C9.30078 14.1581 8.85418 13.094 8.85528 12C8.85528 9.24 11.6495 7 15.0924 7Z" fill="white"/>
</g>
<defs>
<clipPath id="clip0_2_2664">
<rect width="29.9381" height="24" fill="white" transform="translate(0.123535)"/>
</clipPath>
</defs>
</svg>
