<svg width="370" height="210" viewBox="0 0 370 210" fill="none" xmlns="http://www.w3.org/2000/svg">
<rect width="370" height="210" fill="white"/>
<path d="M26.4382 118H34.7223V116.3H28.4134V112.292H34.2173V110.598H28.4134V106.609H34.6456V104.909H26.4382V118ZM37.1305 118H39.0417V111.947C39.0417 110.624 39.9686 109.703 41.0552 109.703C42.1163 109.703 42.8514 110.406 42.8514 111.474V118H44.7562V111.742C44.7562 110.56 45.4785 109.703 46.725 109.703C47.7349 109.703 48.5659 110.266 48.5659 111.595V118H50.4771V111.416C50.4771 109.173 49.2243 108.054 47.4473 108.054C46.0346 108.054 44.9735 108.732 44.5005 109.78H44.3983C43.97 108.706 43.0687 108.054 41.7583 108.054C40.4608 108.054 39.4956 108.7 39.0865 109.78H38.965V108.182H37.1305V118ZM55.896 118.217C57.5195 118.217 58.4336 117.393 58.7979 116.658H58.8746V118H60.7411V111.48C60.7411 108.623 58.4911 108.054 56.9315 108.054C55.1545 108.054 53.5181 108.77 52.8789 110.56L54.6751 110.969C54.9563 110.272 55.6722 109.601 56.957 109.601C58.1907 109.601 58.8235 110.246 58.8235 111.359V111.403C58.8235 112.1 58.1076 112.087 56.3434 112.292C54.4833 112.509 52.5785 112.995 52.5785 115.226C52.5785 117.156 54.0295 118.217 55.896 118.217ZM56.3114 116.683C55.2312 116.683 54.4513 116.197 54.4513 115.251C54.4513 114.229 55.359 113.864 56.4648 113.717C57.0849 113.634 58.555 113.468 58.8299 113.193V114.459C58.8299 115.622 57.9031 116.683 56.3114 116.683ZM63.2868 118H65.198V108.182H63.2868V118ZM64.252 106.667C64.9103 106.667 65.46 106.156 65.46 105.529C65.46 104.903 64.9103 104.385 64.252 104.385C63.5872 104.385 63.0439 104.903 63.0439 105.529C63.0439 106.156 63.5872 106.667 64.252 106.667ZM69.6804 104.909H67.7692V118H69.6804V104.909ZM73.5108 110.975C74.2076 110.975 74.7892 110.406 74.7892 109.697C74.7892 109 74.2076 108.425 73.5108 108.425C72.8077 108.425 72.2324 109 72.2324 109.697C72.2324 110.406 72.8077 110.975 73.5108 110.975ZM73.5108 118.121C74.2076 118.121 74.7892 117.553 74.7892 116.843C74.7892 116.146 74.2076 115.571 73.5108 115.571C72.8077 115.571 72.2324 116.146 72.2324 116.843C72.2324 117.553 72.8077 118.121 73.5108 118.121Z" fill="#767676"/>
<path d="M183.987 105.091L187.929 111.504V116H189.25V111.504L193.192 105.091H191.679L188.653 110.183H188.525L185.5 105.091H183.987ZM198.054 116.17C200.269 116.17 201.761 114.487 201.761 111.952C201.761 109.395 200.269 107.712 198.054 107.712C195.838 107.712 194.346 109.395 194.346 111.952C194.346 114.487 195.838 116.17 198.054 116.17ZM198.054 115.041C196.37 115.041 195.603 113.592 195.603 111.952C195.603 110.311 196.37 108.841 198.054 108.841C199.737 108.841 200.504 110.311 200.504 111.952C200.504 113.592 199.737 115.041 198.054 115.041ZM208.836 112.655C208.836 114.189 207.664 114.892 206.727 114.892C205.683 114.892 204.937 114.125 204.937 112.932V107.818H203.68V113.017C203.68 115.105 204.788 116.107 206.322 116.107C207.558 116.107 208.367 115.446 208.751 114.615H208.836V116H210.093V107.818H208.836V112.655ZM212.396 116H213.653V110.822C213.653 109.714 214.526 108.905 215.72 108.905C216.055 108.905 216.401 108.969 216.487 108.99V107.712C216.343 107.701 216.013 107.69 215.826 107.69C214.846 107.69 213.994 108.244 213.695 109.054H213.61V107.818H212.396V116ZM221.407 116.17C223.069 116.17 224.284 115.339 224.667 114.104L223.453 113.763C223.133 114.615 222.393 115.041 221.407 115.041C219.932 115.041 218.914 114.088 218.856 112.335H224.795V111.803C224.795 108.756 222.984 107.712 221.279 107.712C219.063 107.712 217.593 109.459 217.593 111.973C217.593 114.487 219.042 116.17 221.407 116.17ZM218.856 111.249C218.941 109.975 219.841 108.841 221.279 108.841C222.643 108.841 223.517 109.864 223.517 111.249H218.856ZM226.707 116H227.964V110.886C227.964 109.688 228.838 108.841 229.818 108.841C230.771 108.841 231.437 109.464 231.437 110.396V116H232.716V110.673C232.716 109.619 233.376 108.841 234.527 108.841C235.422 108.841 236.189 109.315 236.189 110.524V116H237.446V110.524C237.446 108.601 236.412 107.712 234.953 107.712C233.781 107.712 232.923 108.25 232.503 109.097H232.417C232.013 108.223 231.299 107.712 230.223 107.712C229.157 107.712 228.369 108.223 228.028 109.097H227.922V107.818H226.707V116ZM242.152 116.192C243.58 116.192 244.325 115.425 244.581 114.892H244.645V116H245.902V110.609C245.902 108.01 243.92 107.712 242.876 107.712C241.641 107.712 240.234 108.138 239.595 109.629L240.788 110.055C241.065 109.459 241.721 108.82 242.919 108.82C244.075 108.82 244.645 109.432 244.645 110.482V110.524C244.645 111.131 244.027 111.078 242.536 111.27C241.017 111.467 239.361 111.803 239.361 113.678C239.361 115.276 240.597 116.192 242.152 116.192ZM242.344 115.062C241.342 115.062 240.618 114.615 240.618 113.741C240.618 112.783 241.491 112.484 242.472 112.357C243.004 112.293 244.432 112.143 244.645 111.888V113.038C244.645 114.061 243.835 115.062 242.344 115.062ZM248.196 116H249.454V107.818H248.196V116ZM248.836 106.455C249.326 106.455 249.731 106.071 249.731 105.602C249.731 105.134 249.326 104.75 248.836 104.75C248.346 104.75 247.941 105.134 247.941 105.602C247.941 106.071 248.346 106.455 248.836 106.455ZM253.013 105.091H251.756V116H253.013V105.091ZM261.601 118.876C262.688 118.876 264.073 118.557 264.733 118.28L264.435 117.3C264.051 117.428 262.816 117.854 261.644 117.854C258 117.854 256.061 115.808 256.061 112.186C256.061 108.628 258.043 106.497 261.388 106.497C264.776 106.497 266.374 108.884 266.374 111.27C266.374 113.699 266.118 114.786 265.032 114.786C264.392 114.786 264.051 114.253 264.051 113.656V108.841H262.922V109.438H262.858C262.709 108.969 261.878 108.564 260.813 108.67C259.215 108.841 258 110.162 258 112.08C258 114.104 258.959 115.659 260.813 115.723C262.027 115.766 262.666 115.169 262.922 114.551H262.986C263.114 115.467 264.264 115.787 265.01 115.787C267.269 115.787 267.482 113.358 267.482 111.291C267.482 108.372 265.436 105.496 261.452 105.496C257.34 105.496 254.889 107.989 254.889 112.143C254.889 116.447 257.255 118.876 261.601 118.876ZM260.983 114.636C259.598 114.636 259.108 113.379 259.108 112.016C259.108 110.78 259.811 109.714 261.026 109.714C262.304 109.714 262.986 110.226 262.986 112.016C262.986 113.784 262.411 114.636 260.983 114.636ZM276.991 108.5H278.355C277.95 106.391 276.182 104.942 273.881 104.942C271.084 104.942 269.108 107.094 269.108 110.545C269.108 113.997 271.068 116.149 273.966 116.149C276.565 116.149 278.419 114.418 278.419 111.717V110.545H274.264V111.717H277.14C277.103 113.678 275.814 114.913 273.966 114.913C271.942 114.913 270.386 113.379 270.386 110.545C270.386 107.712 271.942 106.178 273.881 106.178C275.457 106.178 276.528 107.067 276.991 108.5ZM280.511 116H281.768V110.886C281.768 109.688 282.642 108.841 283.622 108.841C284.575 108.841 285.241 109.464 285.241 110.396V116H286.519V110.673C286.519 109.619 287.18 108.841 288.331 108.841C289.225 108.841 289.992 109.315 289.992 110.524V116H291.25V110.524C291.25 108.601 290.216 107.712 288.757 107.712C287.585 107.712 286.727 108.25 286.306 109.097H286.221C285.816 108.223 285.103 107.712 284.027 107.712C282.961 107.712 282.173 108.223 281.832 109.097H281.725V107.818H280.511V116ZM295.956 116.192C297.383 116.192 298.129 115.425 298.385 114.892H298.449V116H299.706V110.609C299.706 108.01 297.724 107.712 296.68 107.712C295.444 107.712 294.038 108.138 293.399 109.629L294.592 110.055C294.869 109.459 295.524 108.82 296.723 108.82C297.879 108.82 298.449 109.432 298.449 110.482V110.524C298.449 111.131 297.831 111.078 296.339 111.27C294.821 111.467 293.165 111.803 293.165 113.678C293.165 115.276 294.4 116.192 295.956 116.192ZM296.147 115.062C295.146 115.062 294.422 114.615 294.422 113.741C294.422 112.783 295.295 112.484 296.275 112.357C296.808 112.293 298.236 112.143 298.449 111.888V113.038C298.449 114.061 297.639 115.062 296.147 115.062ZM302 116H303.257V107.818H302V116ZM302.639 106.455C303.129 106.455 303.534 106.071 303.534 105.602C303.534 105.134 303.129 104.75 302.639 104.75C302.149 104.75 301.744 105.134 301.744 105.602C301.744 106.071 302.149 106.455 302.639 106.455ZM306.817 105.091H305.56V116H306.817V105.091ZM310.036 116.085C310.563 116.085 310.994 115.654 310.994 115.126C310.994 114.599 310.563 114.168 310.036 114.168C309.508 114.168 309.077 114.599 309.077 115.126C309.077 115.654 309.508 116.085 310.036 116.085ZM322.199 108.5C321.794 106.263 320.004 104.942 317.81 104.942C315.019 104.942 312.994 107.094 312.994 110.545C312.994 113.997 315.019 116.149 317.81 116.149C320.004 116.149 321.794 114.828 322.199 112.591H320.878C320.558 114.104 319.259 114.913 317.81 114.913C315.828 114.913 314.273 113.379 314.273 110.545C314.273 107.712 315.828 106.178 317.81 106.178C319.259 106.178 320.558 106.987 320.878 108.5H322.199ZM327.487 116.17C329.703 116.17 331.195 114.487 331.195 111.952C331.195 109.395 329.703 107.712 327.487 107.712C325.271 107.712 323.78 109.395 323.78 111.952C323.78 114.487 325.271 116.17 327.487 116.17ZM327.487 115.041C325.804 115.041 325.037 113.592 325.037 111.952C325.037 110.311 325.804 108.841 327.487 108.841C329.17 108.841 329.937 110.311 329.937 111.952C329.937 113.592 329.17 115.041 327.487 115.041ZM333.113 116H334.371V110.886C334.371 109.688 335.244 108.841 336.224 108.841C337.178 108.841 337.844 109.464 337.844 110.396V116H339.122V110.673C339.122 109.619 339.782 108.841 340.933 108.841C341.828 108.841 342.595 109.315 342.595 110.524V116H343.852V110.524C343.852 108.601 342.819 107.712 341.359 107.712C340.187 107.712 339.33 108.25 338.909 109.097H338.824C338.419 108.223 337.705 107.712 336.629 107.712C335.564 107.712 334.775 108.223 334.434 109.097H334.328V107.818H333.113V116Z" fill="#767676"/>
<path d="M33.5781 146.348H35.483C35.4254 144.251 33.5717 142.73 30.9126 142.73C28.2855 142.73 26.272 144.232 26.272 146.489C26.272 148.31 27.576 149.378 29.679 149.947L31.2259 150.369C32.6257 150.739 33.706 151.2 33.706 152.363C33.706 153.641 32.4851 154.485 30.804 154.485C29.2827 154.485 28.017 153.808 27.902 152.382H25.9205C26.0483 154.754 27.8828 156.217 30.8168 156.217C33.8913 156.217 35.6619 154.6 35.6619 152.382C35.6619 150.023 33.5589 149.109 31.897 148.7L30.6186 148.368C29.5959 148.106 28.2344 147.626 28.2408 146.374C28.2408 145.261 29.2571 144.437 30.8679 144.437C32.37 144.437 33.4375 145.14 33.5781 146.348ZM37.8688 156H39.78V152.516L40.7324 151.564L44.0691 156H46.415L42.1706 150.394L46.1465 146.182H43.8581L39.9462 150.337H39.78V142.909H37.8688V156ZM49.1491 159.682C50.728 159.682 51.7251 158.857 52.294 157.31L56.353 146.201L54.2884 146.182L51.8018 153.801H51.6996L49.2131 146.182H47.1676L50.7599 156.128L50.5234 156.78C50.0376 158.084 49.3537 158.192 48.3054 157.905L47.8452 159.471C48.0753 159.573 48.5739 159.682 49.1491 159.682ZM58.1539 159.682H60.0652V154.472H60.1802C60.5254 155.099 61.2285 156.192 63.0183 156.192C65.3961 156.192 67.122 154.287 67.122 151.11C67.122 147.927 65.3706 146.054 62.9991 146.054C61.1774 146.054 60.519 147.166 60.1802 147.773H60.0204V146.182H58.1539V159.682ZM60.0268 151.091C60.0268 149.039 60.9217 147.678 62.59 147.678C64.3223 147.678 65.1916 149.141 65.1916 151.091C65.1916 153.06 64.2967 154.562 62.59 154.562C60.9473 154.562 60.0268 153.156 60.0268 151.091ZM73.4949 156.198C75.6362 156.198 77.1511 155.143 77.5858 153.545L75.7768 153.219C75.4316 154.146 74.6007 154.619 73.514 154.619C71.8777 154.619 70.7782 153.558 70.7271 151.666H77.7072V150.989C77.7072 147.441 75.5851 146.054 73.3606 146.054C70.6248 146.054 68.8223 148.138 68.8223 151.155C68.8223 154.204 70.5993 156.198 73.4949 156.198ZM70.7335 150.234C70.8102 148.841 71.8201 147.633 73.3734 147.633C74.8564 147.633 75.8279 148.732 75.8343 150.234H70.7335ZM81.087 148.975C81.7837 148.975 82.3654 148.406 82.3654 147.697C82.3654 147 81.7837 146.425 81.087 146.425C80.3839 146.425 79.8086 147 79.8086 147.697C79.8086 148.406 80.3839 148.975 81.087 148.975ZM81.087 156.121C81.7837 156.121 82.3654 155.553 82.3654 154.843C82.3654 154.146 81.7837 153.571 81.087 153.571C80.3839 153.571 79.8086 154.146 79.8086 154.843C79.8086 155.553 80.3839 156.121 81.087 156.121Z" fill="#767676"/>
<path d="M235.307 156.876C236.394 156.876 237.779 156.557 238.439 156.28L238.141 155.3C237.757 155.428 236.522 155.854 235.35 155.854C231.706 155.854 229.767 153.808 229.767 150.186C229.767 146.628 231.749 144.497 235.094 144.497C238.482 144.497 240.08 146.884 240.08 149.27C240.08 151.699 239.824 152.786 238.738 152.786C238.098 152.786 237.757 152.253 237.757 151.656V146.841H236.628V147.438H236.564C236.415 146.969 235.584 146.564 234.519 146.67C232.921 146.841 231.706 148.162 231.706 150.08C231.706 152.104 232.665 153.659 234.519 153.723C235.733 153.766 236.373 153.169 236.628 152.551H236.692C236.82 153.467 237.971 153.787 238.716 153.787C240.975 153.787 241.188 151.358 241.188 149.291C241.188 146.372 239.142 143.496 235.158 143.496C231.046 143.496 228.596 145.989 228.596 150.143C228.596 154.447 230.961 156.876 235.307 156.876ZM234.689 152.636C233.304 152.636 232.814 151.379 232.814 150.016C232.814 148.78 233.517 147.714 234.732 147.714C236.01 147.714 236.692 148.226 236.692 150.016C236.692 151.784 236.117 152.636 234.689 152.636ZM242.302 143.091L246.244 149.504V154H247.565V149.504L251.507 143.091H249.994L246.969 148.183H246.841L243.815 143.091H242.302ZM256.369 154.17C258.585 154.17 260.076 152.487 260.076 149.952C260.076 147.395 258.585 145.712 256.369 145.712C254.153 145.712 252.662 147.395 252.662 149.952C252.662 152.487 254.153 154.17 256.369 154.17ZM256.369 153.041C254.686 153.041 253.919 151.592 253.919 149.952C253.919 148.311 254.686 146.841 256.369 146.841C258.052 146.841 258.819 148.311 258.819 149.952C258.819 151.592 258.052 153.041 256.369 153.041ZM267.152 150.655C267.152 152.189 265.98 152.892 265.042 152.892C263.998 152.892 263.252 152.125 263.252 150.932V145.818H261.995V151.017C261.995 153.105 263.103 154.107 264.637 154.107C265.873 154.107 266.683 153.446 267.066 152.615H267.152V154H268.409V145.818H267.152V150.655ZM270.711 154H271.968V148.822C271.968 147.714 272.842 146.905 274.035 146.905C274.371 146.905 274.717 146.969 274.802 146.99V145.712C274.658 145.701 274.328 145.69 274.142 145.69C273.161 145.69 272.309 146.244 272.011 147.054H271.926V145.818H270.711V154ZM281.448 150.655C281.448 152.189 280.277 152.892 279.339 152.892C278.295 152.892 277.549 152.125 277.549 150.932V145.818H276.292V151.017C276.292 153.105 277.4 154.107 278.934 154.107C280.17 154.107 280.98 153.446 281.363 152.615H281.448V154H282.706V145.818H281.448V150.655ZM290.803 147.651C290.409 146.489 289.525 145.712 287.906 145.712C286.18 145.712 284.901 146.692 284.901 148.077C284.901 149.206 285.573 149.962 287.075 150.314L288.438 150.634C289.264 150.825 289.653 151.219 289.653 151.784C289.653 152.487 288.907 153.062 287.735 153.062C286.707 153.062 286.063 152.62 285.839 151.741L284.646 152.04C284.939 153.43 286.084 154.17 287.757 154.17C289.658 154.17 290.953 153.132 290.953 151.72C290.953 150.58 290.239 149.861 288.779 149.504L287.565 149.206C286.595 148.966 286.159 148.641 286.159 148.013C286.159 147.31 286.904 146.798 287.906 146.798C289.003 146.798 289.456 147.406 289.674 147.97L290.803 147.651ZM296.275 154.17C297.937 154.17 299.152 153.339 299.535 152.104L298.321 151.763C298.001 152.615 297.261 153.041 296.275 153.041C294.8 153.041 293.782 152.088 293.724 150.335H299.663V149.803C299.663 146.756 297.852 145.712 296.147 145.712C293.932 145.712 292.461 147.459 292.461 149.973C292.461 152.487 293.91 154.17 296.275 154.17ZM293.724 149.249C293.809 147.975 294.709 146.841 296.147 146.841C297.511 146.841 298.385 147.864 298.385 149.249H293.724ZM301.575 154H302.832V148.822C302.832 147.714 303.706 146.905 304.899 146.905C305.235 146.905 305.581 146.969 305.666 146.99V145.712C305.522 145.701 305.192 145.69 305.006 145.69C304.026 145.69 303.173 146.244 302.875 147.054H302.79V145.818H301.575V154ZM308.414 149.078C308.414 147.651 309.298 146.841 310.502 146.841C311.668 146.841 312.377 147.603 312.377 148.886V154H313.634V148.801C313.634 146.713 312.52 145.712 310.864 145.712C309.628 145.712 308.861 146.266 308.477 147.097H308.371V145.818H307.156V154H308.414V149.078ZM318.339 154.192C319.766 154.192 320.512 153.425 320.767 152.892H320.831V154H322.089V148.609C322.089 146.01 320.107 145.712 319.063 145.712C317.827 145.712 316.421 146.138 315.782 147.629L316.975 148.055C317.252 147.459 317.907 146.82 319.106 146.82C320.261 146.82 320.831 147.432 320.831 148.482V148.524C320.831 149.131 320.214 149.078 318.722 149.27C317.204 149.467 315.547 149.803 315.547 151.678C315.547 153.276 316.783 154.192 318.339 154.192ZM318.53 153.062C317.529 153.062 316.804 152.615 316.804 151.741C316.804 150.783 317.678 150.484 318.658 150.357C319.191 150.293 320.618 150.143 320.831 149.888V151.038C320.831 152.061 320.022 153.062 318.53 153.062ZM324.383 154H325.64V148.886C325.64 147.688 326.514 146.841 327.494 146.841C328.447 146.841 329.113 147.464 329.113 148.396V154H330.392V148.673C330.392 147.619 331.052 146.841 332.203 146.841C333.097 146.841 333.865 147.315 333.865 148.524V154H335.122V148.524C335.122 146.601 334.088 145.712 332.629 145.712C331.457 145.712 330.599 146.25 330.178 147.097H330.093C329.688 146.223 328.975 145.712 327.899 145.712C326.833 145.712 326.045 146.223 325.704 147.097H325.597V145.818H324.383V154ZM340.85 154.17C342.512 154.17 343.727 153.339 344.11 152.104L342.896 151.763C342.576 152.615 341.836 153.041 340.85 153.041C339.375 153.041 338.358 152.088 338.299 150.335H344.238V149.803C344.238 146.756 342.427 145.712 340.723 145.712C338.507 145.712 337.037 147.459 337.037 149.973C337.037 152.487 338.485 154.17 340.85 154.17ZM338.299 149.249C338.384 147.975 339.284 146.841 340.723 146.841C342.086 146.841 342.96 147.864 342.96 149.249H338.299Z" fill="#767676"/>
<path d="M25.7926 182.609H29.8707V194H31.8395V182.609H35.924V180.909H25.7926V182.609ZM40.8171 194.198C42.9585 194.198 44.4734 193.143 44.908 191.545L43.0991 191.219C42.7539 192.146 41.9229 192.619 40.8363 192.619C39.1999 192.619 38.1005 191.558 38.0494 189.666H45.0295V188.989C45.0295 185.441 42.9073 184.054 40.6829 184.054C37.9471 184.054 36.1445 186.138 36.1445 189.155C36.1445 192.204 37.9215 194.198 40.8171 194.198ZM38.0558 188.234C38.1325 186.841 39.1424 185.633 40.6957 185.633C42.1786 185.633 43.1502 186.732 43.1566 188.234H38.0558ZM49.0613 180.909H47.15V194H49.0613V180.909ZM55.864 194.198C58.0053 194.198 59.5202 193.143 59.9549 191.545L58.146 191.219C57.8008 192.146 56.9698 192.619 55.8832 192.619C54.2468 192.619 53.1474 191.558 53.0962 189.666H60.0764V188.989C60.0764 185.441 57.9542 184.054 55.7298 184.054C52.994 184.054 51.1914 186.138 51.1914 189.155C51.1914 192.204 52.9684 194.198 55.864 194.198ZM53.1026 188.234C53.1793 186.841 54.1893 185.633 55.7425 185.633C57.2255 185.633 58.1971 186.732 58.2035 188.234H53.1026ZM66.3134 197.886C68.8127 197.886 70.7431 196.742 70.7431 194.217V184.182H68.8702V185.773H68.7296C68.3908 185.166 67.7132 184.054 65.8851 184.054C63.5137 184.054 61.7686 185.927 61.7686 189.053C61.7686 192.185 63.552 193.853 65.8723 193.853C67.6749 193.853 68.3716 192.837 68.7168 192.21H68.8382V194.141C68.8382 195.681 67.7836 196.346 66.3326 196.346C64.7409 196.346 64.1209 195.547 63.7821 194.984L62.1394 195.662C62.6571 196.864 63.9675 197.886 66.3134 197.886ZM66.2942 192.268C64.5875 192.268 63.699 190.957 63.699 189.027C63.699 187.141 64.5684 185.678 66.2942 185.678C67.9625 185.678 68.8574 187.039 68.8574 189.027C68.8574 191.053 67.9434 192.268 66.2942 192.268ZM73.3063 194H75.2175V188.004C75.2175 186.719 76.2083 185.793 77.5634 185.793C77.9597 185.793 78.4071 185.863 78.5605 185.908V184.08C78.3688 184.054 77.9917 184.035 77.7488 184.035C76.5982 184.035 75.6138 184.687 75.2559 185.741H75.1536V184.182H73.3063V194ZM82.9838 194.217C84.6074 194.217 85.5215 193.393 85.8858 192.658H85.9625V194H87.829V187.48C87.829 184.623 85.579 184.054 84.0194 184.054C82.2424 184.054 80.606 184.77 79.9668 186.56L81.763 186.969C82.0442 186.272 82.7601 185.601 84.0449 185.601C85.2786 185.601 85.9114 186.246 85.9114 187.359V187.403C85.9114 188.1 85.1955 188.087 83.4313 188.292C81.5712 188.509 79.6664 188.995 79.6664 191.226C79.6664 193.156 81.1174 194.217 82.9838 194.217ZM83.3993 192.683C82.3191 192.683 81.5392 192.197 81.5392 191.251C81.5392 190.229 82.4469 189.864 83.5527 189.717C84.1728 189.634 85.6429 189.468 85.9178 189.193V190.459C85.9178 191.622 84.9909 192.683 83.3993 192.683ZM90.3746 194H92.2859V187.947C92.2859 186.624 93.2127 185.703 94.2994 185.703C95.3604 185.703 96.0955 186.406 96.0955 187.474V194H98.0004V187.742C98.0004 186.56 98.7227 185.703 99.9691 185.703C100.979 185.703 101.81 186.266 101.81 187.595V194H103.721V187.416C103.721 185.173 102.468 184.054 100.691 184.054C99.2788 184.054 98.2177 184.732 97.7447 185.78H97.6424C97.2141 184.706 96.3129 184.054 95.0025 184.054C93.7049 184.054 92.7397 184.7 92.3306 185.78H92.2092V184.182H90.3746V194ZM107.542 186.975C108.239 186.975 108.82 186.406 108.82 185.697C108.82 185 108.239 184.425 107.542 184.425C106.839 184.425 106.264 185 106.264 185.697C106.264 186.406 106.839 186.975 107.542 186.975ZM107.542 194.121C108.239 194.121 108.82 193.553 108.82 192.843C108.82 192.146 108.239 191.571 107.542 191.571C106.839 191.571 106.264 192.146 106.264 192.843C106.264 193.553 106.839 194.121 107.542 194.121Z" fill="#767676"/>
<path d="M235.307 194.876C236.394 194.876 237.779 194.557 238.439 194.28L238.141 193.3C237.757 193.428 236.522 193.854 235.35 193.854C231.706 193.854 229.767 191.808 229.767 188.186C229.767 184.628 231.749 182.497 235.094 182.497C238.482 182.497 240.08 184.884 240.08 187.27C240.08 189.699 239.824 190.786 238.738 190.786C238.098 190.786 237.757 190.253 237.757 189.656V184.841H236.628V185.438H236.564C236.415 184.969 235.584 184.564 234.519 184.67C232.921 184.841 231.706 186.162 231.706 188.08C231.706 190.104 232.665 191.659 234.519 191.723C235.733 191.766 236.373 191.169 236.628 190.551H236.692C236.82 191.467 237.971 191.787 238.716 191.787C240.975 191.787 241.188 189.358 241.188 187.291C241.188 184.372 239.142 181.496 235.158 181.496C231.046 181.496 228.596 183.989 228.596 188.143C228.596 192.447 230.961 194.876 235.307 194.876ZM234.689 190.636C233.304 190.636 232.814 189.379 232.814 188.016C232.814 186.78 233.517 185.714 234.732 185.714C236.01 185.714 236.692 186.226 236.692 188.016C236.692 189.784 236.117 190.636 234.689 190.636ZM242.302 181.091L246.244 187.504V192H247.565V187.504L251.507 181.091H249.994L246.969 186.183H246.841L243.815 181.091H242.302ZM256.369 192.17C258.585 192.17 260.076 190.487 260.076 187.952C260.076 185.395 258.585 183.712 256.369 183.712C254.153 183.712 252.662 185.395 252.662 187.952C252.662 190.487 254.153 192.17 256.369 192.17ZM256.369 191.041C254.686 191.041 253.919 189.592 253.919 187.952C253.919 186.311 254.686 184.841 256.369 184.841C258.052 184.841 258.819 186.311 258.819 187.952C258.819 189.592 258.052 191.041 256.369 191.041ZM267.152 188.655C267.152 190.189 265.98 190.892 265.042 190.892C263.998 190.892 263.252 190.125 263.252 188.932V183.818H261.995V189.017C261.995 191.105 263.103 192.107 264.637 192.107C265.873 192.107 266.683 191.446 267.066 190.615H267.152V192H268.409V183.818H267.152V188.655ZM270.711 192H271.968V186.822C271.968 185.714 272.842 184.905 274.035 184.905C274.371 184.905 274.717 184.969 274.802 184.99V183.712C274.658 183.701 274.328 183.69 274.142 183.69C273.161 183.69 272.309 184.244 272.011 185.054H271.926V183.818H270.711V192ZM281.448 188.655C281.448 190.189 280.277 190.892 279.339 190.892C278.295 190.892 277.549 190.125 277.549 188.932V183.818H276.292V189.017C276.292 191.105 277.4 192.107 278.934 192.107C280.17 192.107 280.98 191.446 281.363 190.615H281.448V192H282.706V183.818H281.448V188.655ZM290.803 185.651C290.409 184.489 289.525 183.712 287.906 183.712C286.18 183.712 284.901 184.692 284.901 186.077C284.901 187.206 285.573 187.962 287.075 188.314L288.438 188.634C289.264 188.825 289.653 189.219 289.653 189.784C289.653 190.487 288.907 191.062 287.735 191.062C286.707 191.062 286.063 190.62 285.839 189.741L284.646 190.04C284.939 191.43 286.084 192.17 287.757 192.17C289.658 192.17 290.953 191.132 290.953 189.72C290.953 188.58 290.239 187.861 288.779 187.504L287.565 187.206C286.595 186.966 286.159 186.641 286.159 186.013C286.159 185.31 286.904 184.798 287.906 184.798C289.003 184.798 289.456 185.406 289.674 185.97L290.803 185.651ZM296.275 192.17C297.937 192.17 299.152 191.339 299.535 190.104L298.321 189.763C298.001 190.615 297.261 191.041 296.275 191.041C294.8 191.041 293.782 190.088 293.724 188.335H299.663V187.803C299.663 184.756 297.852 183.712 296.147 183.712C293.932 183.712 292.461 185.459 292.461 187.973C292.461 190.487 293.91 192.17 296.275 192.17ZM293.724 187.249C293.809 185.975 294.709 184.841 296.147 184.841C297.511 184.841 298.385 185.864 298.385 187.249H293.724ZM301.575 192H302.832V186.822C302.832 185.714 303.706 184.905 304.899 184.905C305.235 184.905 305.581 184.969 305.666 184.99V183.712C305.522 183.701 305.192 183.69 305.006 183.69C304.026 183.69 303.173 184.244 302.875 185.054H302.79V183.818H301.575V192ZM308.414 187.078C308.414 185.651 309.298 184.841 310.502 184.841C311.668 184.841 312.377 185.603 312.377 186.886V192H313.634V186.801C313.634 184.713 312.52 183.712 310.864 183.712C309.628 183.712 308.861 184.266 308.477 185.097H308.371V183.818H307.156V192H308.414V187.078ZM318.339 192.192C319.766 192.192 320.512 191.425 320.767 190.892H320.831V192H322.089V186.609C322.089 184.01 320.107 183.712 319.063 183.712C317.827 183.712 316.421 184.138 315.782 185.629L316.975 186.055C317.252 185.459 317.907 184.82 319.106 184.82C320.261 184.82 320.831 185.432 320.831 186.482V186.524C320.831 187.131 320.214 187.078 318.722 187.27C317.204 187.467 315.547 187.803 315.547 189.678C315.547 191.276 316.783 192.192 318.339 192.192ZM318.53 191.062C317.529 191.062 316.804 190.615 316.804 189.741C316.804 188.783 317.678 188.484 318.658 188.357C319.191 188.293 320.618 188.143 320.831 187.888V189.038C320.831 190.061 320.022 191.062 318.53 191.062ZM324.383 192H325.64V186.886C325.64 185.688 326.514 184.841 327.494 184.841C328.447 184.841 329.113 185.464 329.113 186.396V192H330.392V186.673C330.392 185.619 331.052 184.841 332.203 184.841C333.097 184.841 333.865 185.315 333.865 186.524V192H335.122V186.524C335.122 184.601 334.088 183.712 332.629 183.712C331.457 183.712 330.599 184.25 330.178 185.097H330.093C329.688 184.223 328.975 183.712 327.899 183.712C326.833 183.712 326.045 184.223 325.704 185.097H325.597V183.818H324.383V192ZM340.85 192.17C342.512 192.17 343.727 191.339 344.11 190.104L342.896 189.763C342.576 190.615 341.836 191.041 340.85 191.041C339.375 191.041 338.358 190.088 338.299 188.335H344.238V187.803C344.238 184.756 342.427 183.712 340.723 183.712C338.507 183.712 337.037 185.459 337.037 187.973C337.037 190.487 338.485 192.17 340.85 192.17ZM338.299 187.249C338.384 185.975 339.284 184.841 340.723 184.841C342.086 184.841 342.96 185.864 342.96 187.249H338.299Z" fill="#767676"/>
<circle cx="185" cy="45" r="20" fill="#FFB400"/>
<g clip-path="url(#clip0_2_973)">
<path d="M178.25 38.25H191.75C191.949 38.25 192.14 38.329 192.28 38.4697C192.421 38.6103 192.5 38.8011 192.5 39V51C192.5 51.1989 192.421 51.3897 192.28 51.5303C192.14 51.671 191.949 51.75 191.75 51.75H178.25C178.051 51.75 177.86 51.671 177.72 51.5303C177.579 51.3897 177.5 51.1989 177.5 51V39C177.5 38.8011 177.579 38.6103 177.72 38.4697C177.86 38.329 178.051 38.25 178.25 38.25ZM185.045 44.7622L180.236 40.6785L179.265 41.8215L185.055 46.7378L190.74 41.8177L189.76 40.683L185.046 44.7622H185.045Z" fill="#2B2B2B"/>
</g>
<defs>
<clipPath id="clip0_2_973">
<rect width="18" height="18" fill="white" transform="translate(176 36)"/>
</clipPath>
</defs>
</svg>
