<svg width="155" height="51" viewBox="0 0 155 51" fill="none" xmlns="http://www.w3.org/2000/svg">
<rect x="0.845215" width="154" height="51" rx="5" fill="#FFB400"/>
<path d="M34.4361 31H36.1918V25.9261H41.9929V31H43.7543V19.3636H41.9929V24.4205H36.1918V19.3636H34.4361V31ZM48.0668 19.3636H46.3111V31H48.0668V19.3636ZM50.6236 31H52.3793V26.5966H54.7657C54.8054 26.5966 54.8395 26.5966 54.8793 26.5966L57.2429 31H59.2429L56.6634 26.2898C58.0895 25.7614 58.7998 24.5739 58.7998 23.0114C58.7998 20.8693 57.4702 19.3636 54.7714 19.3636H50.6236V31ZM52.3793 25.0852V20.8693H54.5839C56.3168 20.8693 57.0327 21.6932 57.0327 23.0114C57.0327 24.3239 56.3168 25.0852 54.6066 25.0852H52.3793ZM60.9361 31H68.2998V29.4886H62.6918V25.9261H67.8509V24.4205H62.6918V20.875H68.2316V19.3636H60.9361V31ZM74.8111 19.3636V31H76.4816V22.5739H76.5895L80.0214 30.983H81.4077L84.8395 22.5795H84.9475V31H86.6179V19.3636H84.4873L80.7827 28.4091H80.6464L76.9418 19.3636H74.8111ZM89.1705 31H96.5341V29.4886H90.9262V25.9261H96.0853V24.4205H90.9262V20.875H96.466V19.3636H89.1705V31Z" fill="#2B2B2B"/>
<g clip-path="url(#clip0_2_2652)">
<path d="M117.626 24.3331L114.05 20.7571L114.993 19.8145L120.178 24.9998L114.993 30.1851L114.05 29.2425L117.626 25.6665H109.512V24.3331H117.626Z" fill="#2B2B2B"/>
</g>
<defs>
<clipPath id="clip0_2_2652">
<rect width="16" height="16" fill="white" transform="translate(106.845 17)"/>
</clipPath>
</defs>
</svg>
