<svg width="370" height="210" viewBox="0 0 370 210" fill="none" xmlns="http://www.w3.org/2000/svg">
<rect width="370" height="210" fill="white"/>
<path d="M37.3111 105.166C36.8636 102.366 34.6712 100.73 31.9034 100.73C28.5156 100.73 26.0163 103.268 26.0163 107.455C26.0163 111.641 28.5028 114.179 31.9034 114.179C34.7798 114.179 36.8828 112.376 37.3111 109.788L35.3168 109.781C34.978 111.456 33.5717 112.376 31.9162 112.376C29.6726 112.376 27.9787 110.657 27.9787 107.455C27.9787 104.278 29.6662 102.533 31.9226 102.533C33.5909 102.533 34.9908 103.472 35.3168 105.166H37.3111ZM43.6568 114.198C46.4245 114.198 48.2335 112.172 48.2335 109.136C48.2335 106.08 46.4245 104.054 43.6568 104.054C40.889 104.054 39.0801 106.08 39.0801 109.136C39.0801 112.172 40.889 114.198 43.6568 114.198ZM43.6632 112.594C41.8542 112.594 41.0105 111.015 41.0105 109.129C41.0105 107.25 41.8542 105.652 43.6632 105.652C45.4593 105.652 46.3031 107.25 46.3031 109.129C46.3031 111.015 45.4593 112.594 43.6632 112.594ZM56.5863 109.928C56.5927 111.597 55.3526 112.389 54.2788 112.389C53.0962 112.389 52.2781 111.533 52.2781 110.197V104.182H50.3668V110.427C50.3668 112.862 51.7028 114.128 53.5884 114.128C55.065 114.128 56.0685 113.348 56.5224 112.3H56.6246V114H58.5039V104.182H56.5863V109.928ZM62.9831 108.17C62.9831 106.604 63.9419 105.71 65.2715 105.71C66.5691 105.71 67.3553 106.56 67.3553 107.985V114H69.2665V107.755C69.2665 105.326 67.9306 104.054 65.9235 104.054C64.4469 104.054 63.4817 104.738 63.0279 105.78H62.9064V104.182H61.0719V114H62.9831V108.17ZM76.4128 104.182H74.3993V101.83H72.4881V104.182H71.0499V105.716H72.4881V111.513C72.4817 113.297 73.8432 114.16 75.3517 114.128C75.959 114.121 76.3681 114.006 76.5918 113.923L76.2466 112.344C76.1188 112.37 75.8823 112.428 75.5755 112.428C74.9554 112.428 74.3993 112.223 74.3993 111.117V105.716H76.4128V104.182ZM78.527 114H80.4382V108.004C80.4382 106.719 81.429 105.793 82.7841 105.793C83.1804 105.793 83.6278 105.863 83.7812 105.908V104.08C83.5895 104.054 83.2124 104.035 82.9695 104.035C81.8189 104.035 80.8345 104.687 80.4766 105.741H80.3743V104.182H78.527V114ZM86.9421 117.682C88.521 117.682 89.5181 116.857 90.087 115.31L94.146 104.201L92.0813 104.182L89.5948 111.801H89.4925L87.006 104.182H84.9606L88.5529 114.128L88.3164 114.78C87.8306 116.084 87.1467 116.192 86.0984 115.905L85.6381 117.471C85.8683 117.573 86.3668 117.682 86.9421 117.682ZM97.2061 106.975C97.9029 106.975 98.4846 106.406 98.4846 105.697C98.4846 105 97.9029 104.425 97.2061 104.425C96.503 104.425 95.9277 105 95.9277 105.697C95.9277 106.406 96.503 106.975 97.2061 106.975ZM97.2061 114.121C97.9029 114.121 98.4846 113.553 98.4846 112.843C98.4846 112.146 97.9029 111.571 97.2061 111.571C96.503 111.571 95.9277 112.146 95.9277 112.843C95.9277 113.553 96.503 114.121 97.2061 114.121Z" fill="#767676"/>
<path d="M263.44 112H267.382C269.96 112 271.025 110.743 271.025 109.102C271.025 107.376 269.832 106.439 268.831 106.375V106.268C269.768 106.013 270.599 105.395 270.599 103.989C270.599 102.391 269.534 101.091 267.254 101.091H263.44V112ZM264.761 110.828V107.036H267.446C268.873 107.036 269.768 107.994 269.768 109.102C269.768 110.061 269.108 110.828 267.382 110.828H264.761ZM264.761 105.885V102.263H267.254C268.703 102.263 269.342 103.03 269.342 103.989C269.342 105.139 268.405 105.885 267.211 105.885H264.761ZM275.433 112.192C276.861 112.192 277.607 111.425 277.862 110.892H277.926V112H279.183V106.609C279.183 104.01 277.202 103.712 276.158 103.712C274.922 103.712 273.516 104.138 272.876 105.629L274.07 106.055C274.347 105.459 275.002 104.82 276.2 104.82C277.356 104.82 277.926 105.432 277.926 106.482V106.524C277.926 107.131 277.308 107.078 275.817 107.27C274.299 107.467 272.642 107.803 272.642 109.678C272.642 111.276 273.878 112.192 275.433 112.192ZM275.625 111.062C274.624 111.062 273.899 110.615 273.899 109.741C273.899 108.783 274.773 108.484 275.753 108.357C276.286 108.293 277.713 108.143 277.926 107.888V109.038C277.926 110.061 277.116 111.062 275.625 111.062ZM282.735 107.078C282.735 105.651 283.619 104.841 284.823 104.841C285.989 104.841 286.698 105.603 286.698 106.886V112H287.955V106.801C287.955 104.713 286.842 103.712 285.185 103.712C283.949 103.712 283.182 104.266 282.799 105.097H282.692V103.818H281.478V112H282.735V107.078ZM293.555 115.239C295.515 115.239 297.092 114.344 297.092 112.234V103.818H295.877V105.118H295.749C295.472 104.692 294.961 103.712 293.363 103.712C291.296 103.712 289.869 105.352 289.869 107.866C289.869 110.423 291.36 111.872 293.342 111.872C294.94 111.872 295.451 110.935 295.728 110.487H295.835V112.149C295.835 113.513 294.876 114.131 293.555 114.131C292.069 114.131 291.547 113.348 291.211 112.895L290.21 113.598C290.721 114.456 291.728 115.239 293.555 115.239ZM293.512 110.743C291.935 110.743 291.126 109.55 291.126 107.845C291.126 106.183 291.914 104.841 293.512 104.841C295.046 104.841 295.856 106.077 295.856 107.845C295.856 109.656 295.025 110.743 293.512 110.743ZM300.65 101.091H299.393V112H300.65V101.091ZM305.36 112.192C306.788 112.192 307.533 111.425 307.789 110.892H307.853V112H309.11V106.609C309.11 104.01 307.128 103.712 306.084 103.712C304.849 103.712 303.442 104.138 302.803 105.629L303.996 106.055C304.273 105.459 304.929 104.82 306.127 104.82C307.283 104.82 307.853 105.432 307.853 106.482V106.524C307.853 107.131 307.235 107.078 305.744 107.27C304.225 107.467 302.569 107.803 302.569 109.678C302.569 111.276 303.805 112.192 305.36 112.192ZM305.552 111.062C304.55 111.062 303.826 110.615 303.826 109.741C303.826 108.783 304.699 108.484 305.68 108.357C306.212 108.293 307.64 108.143 307.853 107.888V109.038C307.853 110.061 307.043 111.062 305.552 111.062ZM314.494 112.17C316.071 112.17 316.603 111.19 316.88 110.743H317.029V112H318.244V101.091H316.987V105.118H316.88C316.603 104.692 316.113 103.712 314.515 103.712C312.449 103.712 311.021 105.352 311.021 107.93C311.021 110.53 312.449 112.17 314.494 112.17ZM314.664 111.041C313.088 111.041 312.278 109.656 312.278 107.909C312.278 106.183 313.066 104.841 314.664 104.841C316.199 104.841 317.008 106.077 317.008 107.909C317.008 109.763 316.177 111.041 314.664 111.041ZM324.151 112.17C325.813 112.17 327.028 111.339 327.411 110.104L326.197 109.763C325.877 110.615 325.137 111.041 324.151 111.041C322.676 111.041 321.658 110.088 321.6 108.335H327.539V107.803C327.539 104.756 325.728 103.712 324.023 103.712C321.808 103.712 320.337 105.459 320.337 107.973C320.337 110.487 321.786 112.17 324.151 112.17ZM321.6 107.249C321.685 105.975 322.585 104.841 324.023 104.841C325.387 104.841 326.261 105.864 326.261 107.249H321.6ZM335.247 105.651C334.853 104.489 333.968 103.712 332.349 103.712C330.623 103.712 329.345 104.692 329.345 106.077C329.345 107.206 330.016 107.962 331.518 108.314L332.882 108.634C333.707 108.825 334.096 109.219 334.096 109.784C334.096 110.487 333.35 111.062 332.179 111.062C331.151 111.062 330.506 110.62 330.282 109.741L329.089 110.04C329.382 111.43 330.527 112.17 332.2 112.17C334.102 112.17 335.396 111.132 335.396 109.72C335.396 108.58 334.682 107.861 333.223 107.504L332.008 107.206C331.039 106.966 330.602 106.641 330.602 106.013C330.602 105.31 331.348 104.798 332.349 104.798C333.446 104.798 333.899 105.406 334.118 105.97L335.247 105.651ZM338.545 107.078C338.545 105.651 339.456 104.841 340.697 104.841C341.88 104.841 342.594 105.587 342.594 106.886V112H343.851V106.801C343.851 104.697 342.732 103.712 341.06 103.712C339.771 103.712 339.035 104.25 338.652 105.097H338.545V101.091H337.288V112H338.545V107.078Z" fill="#767676"/>
<path d="M37.3111 143.166C36.8636 140.366 34.6712 138.73 31.9034 138.73C28.5156 138.73 26.0163 141.268 26.0163 145.455C26.0163 149.641 28.5028 152.179 31.9034 152.179C34.7798 152.179 36.8828 150.376 37.3111 147.788L35.3168 147.781C34.978 149.456 33.5717 150.376 31.9162 150.376C29.6726 150.376 27.9787 148.657 27.9787 145.455C27.9787 142.278 29.6662 140.533 31.9226 140.533C33.5909 140.533 34.9908 141.472 35.3168 143.166H37.3111ZM39.5211 152H41.4324V142.182H39.5211V152ZM40.4863 140.667C41.1447 140.667 41.6944 140.156 41.6944 139.529C41.6944 138.903 41.1447 138.385 40.4863 138.385C39.8216 138.385 39.2782 138.903 39.2782 139.529C39.2782 140.156 39.8216 140.667 40.4863 140.667ZM48.5866 142.182H46.5732V139.83H44.6619V142.182H43.2237V143.716H44.6619V149.513C44.6555 151.297 46.017 152.16 47.5256 152.128C48.1328 152.121 48.5419 152.006 48.7656 151.923L48.4205 150.344C48.2926 150.37 48.0561 150.428 47.7493 150.428C47.1293 150.428 46.5732 150.223 46.5732 149.117V143.716H48.5866V142.182ZM51.9089 155.682C53.4877 155.682 54.4849 154.857 55.0538 153.31L59.1127 142.201L57.0481 142.182L54.5616 149.801H54.4593L51.9728 142.182H49.9274L53.5197 152.128L53.2832 152.78C52.7974 154.084 52.1135 154.192 51.0652 153.905L50.6049 155.471C50.835 155.573 51.3336 155.682 51.9089 155.682ZM62.1729 144.975C62.8697 144.975 63.4513 144.406 63.4513 143.697C63.4513 143 62.8697 142.425 62.1729 142.425C61.4698 142.425 60.8945 143 60.8945 143.697C60.8945 144.406 61.4698 144.975 62.1729 144.975ZM62.1729 152.121C62.8697 152.121 63.4513 151.553 63.4513 150.843C63.4513 150.146 62.8697 149.571 62.1729 149.571C61.4698 149.571 60.8945 150.146 60.8945 150.843C60.8945 151.553 61.4698 152.121 62.1729 152.121Z" fill="#767676"/>
<path d="M304.98 150C308.304 150 310.179 147.933 310.179 144.524C310.179 141.136 308.304 139.091 305.13 139.091H301.614V150H304.98ZM302.935 148.828V140.263H305.044C307.601 140.263 308.901 141.882 308.901 144.524C308.901 147.188 307.601 148.828 304.895 148.828H302.935ZM313.482 145.078C313.482 143.651 314.393 142.841 315.634 142.841C316.816 142.841 317.53 143.587 317.53 144.886V150H318.787V144.801C318.787 142.697 317.669 141.712 315.996 141.712C314.707 141.712 313.972 142.25 313.588 143.097H313.482V139.091H312.225V150H313.482V145.078ZM323.495 150.192C324.922 150.192 325.668 149.425 325.924 148.892H325.988V150H327.245V144.609C327.245 142.01 325.263 141.712 324.219 141.712C322.983 141.712 321.577 142.138 320.938 143.629L322.131 144.055C322.408 143.459 323.063 142.82 324.262 142.82C325.418 142.82 325.988 143.432 325.988 144.482V144.524C325.988 145.131 325.37 145.078 323.878 145.27C322.36 145.467 320.704 145.803 320.704 147.678C320.704 149.276 321.939 150.192 323.495 150.192ZM323.687 149.062C322.685 149.062 321.961 148.615 321.961 147.741C321.961 146.783 322.834 146.484 323.814 146.357C324.347 146.293 325.775 146.143 325.988 145.888V147.038C325.988 148.061 325.178 149.062 323.687 149.062ZM329.539 150H330.796V146.937L331.675 146.122L334.738 150H336.336L332.623 145.312L336.08 141.818H334.525L330.945 145.462H330.796V139.091H329.539V150ZM340.106 150.192C341.534 150.192 342.279 149.425 342.535 148.892H342.599V150H343.856V144.609C343.856 142.01 341.875 141.712 340.831 141.712C339.595 141.712 338.188 142.138 337.549 143.629L338.742 144.055C339.019 143.459 339.675 142.82 340.873 142.82C342.029 142.82 342.599 143.432 342.599 144.482V144.524C342.599 145.131 341.981 145.078 340.49 145.27C338.972 145.467 337.315 145.803 337.315 147.678C337.315 149.276 338.551 150.192 340.106 150.192ZM340.298 149.062C339.296 149.062 338.572 148.615 338.572 147.741C338.572 146.783 339.446 146.484 340.426 146.357C340.958 146.293 342.386 146.143 342.599 145.888V147.038C342.599 148.061 341.789 149.062 340.298 149.062Z" fill="#767676"/>
<path d="M33.5781 180.348H35.483C35.4254 178.251 33.5717 176.73 30.9126 176.73C28.2855 176.73 26.272 178.232 26.272 180.489C26.272 182.31 27.576 183.378 29.679 183.947L31.2259 184.369C32.6257 184.739 33.706 185.2 33.706 186.363C33.706 187.641 32.4851 188.485 30.804 188.485C29.2827 188.485 28.017 187.808 27.902 186.382H25.9205C26.0483 188.754 27.8828 190.217 30.8168 190.217C33.8913 190.217 35.6619 188.6 35.6619 186.382C35.6619 184.023 33.5589 183.109 31.897 182.7L30.6186 182.368C29.5959 182.106 28.2344 181.626 28.2408 180.374C28.2408 179.261 29.2571 178.437 30.8679 178.437C32.37 178.437 33.4375 179.14 33.5781 180.348ZM42.4519 180.182H40.4384V177.83H38.5272V180.182H37.089V181.716H38.5272V187.513C38.5208 189.297 39.8823 190.16 41.3908 190.128C41.998 190.121 42.4071 190.006 42.6309 189.923L42.2857 188.344C42.1578 188.37 41.9213 188.428 41.6145 188.428C40.9945 188.428 40.4384 188.223 40.4384 187.117V181.716H42.4519V180.182ZM44.5661 190H46.4773V184.004C46.4773 182.719 47.468 181.793 48.8232 181.793C49.2195 181.793 49.6669 181.863 49.8203 181.908V180.08C49.6286 180.054 49.2514 180.035 49.0085 180.035C47.858 180.035 46.8736 180.687 46.5156 181.741H46.4134V180.182H44.5661V190ZM55.3542 190.198C57.4956 190.198 59.0105 189.143 59.4451 187.545L57.6362 187.219C57.291 188.146 56.4601 188.619 55.3734 188.619C53.737 188.619 52.6376 187.558 52.5865 185.666H59.5666V184.989C59.5666 181.441 57.4444 180.054 55.22 180.054C52.4842 180.054 50.6816 182.138 50.6816 185.155C50.6816 188.204 52.4586 190.198 55.3542 190.198ZM52.5929 184.234C52.6696 182.841 53.6795 181.633 55.2328 181.633C56.7157 181.633 57.6873 182.732 57.6937 184.234H52.5929ZM64.5444 190.217C66.168 190.217 67.082 189.393 67.4464 188.658H67.5231V190H69.3896V183.48C69.3896 180.623 67.1396 180.054 65.5799 180.054C63.8029 180.054 62.1665 180.77 61.5273 182.56L63.3235 182.969C63.6048 182.272 64.3207 181.601 65.6055 181.601C66.8391 181.601 67.4719 182.246 67.4719 183.359V183.403C67.4719 184.1 66.756 184.087 64.9918 184.292C63.1317 184.509 61.2269 184.995 61.2269 187.226C61.2269 189.156 62.6779 190.217 64.5444 190.217ZM64.9599 188.683C63.8796 188.683 63.0998 188.197 63.0998 187.251C63.0998 186.229 64.0075 185.864 65.1133 185.717C65.7333 185.634 67.2035 185.468 67.4783 185.193V186.459C67.4783 187.622 66.5515 188.683 64.9599 188.683ZM76.5183 180.182H74.5048V177.83H72.5936V180.182H71.1554V181.716H72.5936V187.513C72.5872 189.297 73.9487 190.16 75.4572 190.128C76.0645 190.121 76.4735 190.006 76.6973 189.923L76.3521 188.344C76.2243 188.37 75.9877 188.428 75.6809 188.428C75.0609 188.428 74.5048 188.223 74.5048 187.117V181.716H76.5183V180.182ZM79.8917 182.975C80.5884 182.975 81.1701 182.406 81.1701 181.697C81.1701 181 80.5884 180.425 79.8917 180.425C79.1886 180.425 78.6133 181 78.6133 181.697C78.6133 182.406 79.1886 182.975 79.8917 182.975ZM79.8917 190.121C80.5884 190.121 81.1701 189.553 81.1701 188.843C81.1701 188.146 80.5884 187.571 79.8917 187.571C79.1886 187.571 78.6133 188.146 78.6133 188.843C78.6133 189.553 79.1886 190.121 79.8917 190.121Z" fill="#767676"/>
<path d="M217.818 188.149C219.933 188.149 221.504 186.823 221.504 185.038C221.504 183.653 220.684 182.647 219.31 182.418V182.332C220.412 181.997 221.1 181.091 221.1 179.861C221.1 178.316 219.88 176.942 217.861 176.942C215.975 176.942 214.409 178.103 214.345 179.818H215.624C215.672 178.732 216.705 178.092 217.84 178.092C219.043 178.092 219.821 178.822 219.821 179.925C219.821 181.075 218.921 181.821 217.627 181.821H216.753V182.993H217.627C219.283 182.993 220.205 183.835 220.205 185.038C220.205 186.194 219.198 186.977 217.797 186.977C216.535 186.977 215.533 186.327 215.453 185.273H214.111C214.191 186.988 215.704 188.149 217.818 188.149ZM227.092 188.149C229.169 188.149 230.693 186.615 230.693 184.527C230.693 182.412 229.223 180.862 227.22 180.862C226.485 180.862 225.771 181.123 225.324 181.48H225.26L225.643 178.263H230.203V177.091H224.535L223.875 182.46L225.111 182.609C225.563 182.284 226.336 182.05 227.007 182.055C228.397 182.066 229.415 183.121 229.415 184.548C229.415 185.949 228.434 186.977 227.092 186.977C225.973 186.977 225.084 186.258 224.983 185.273H223.704C223.784 186.935 225.217 188.149 227.092 188.149ZM237.667 177.091H236.282L240.288 188H241.651L245.657 177.091H244.272L241.033 186.274H240.906L237.667 177.091ZM248.443 183.078C248.443 181.651 249.354 180.841 250.595 180.841C251.777 180.841 252.491 181.587 252.491 182.886V188H253.748V182.801C253.748 180.697 252.63 179.712 250.957 179.712C249.668 179.712 248.933 180.25 248.549 181.097H248.443V177.091H247.186V188H248.443V183.078ZM258.456 188.192C259.883 188.192 260.629 187.425 260.885 186.892H260.949V188H262.206V182.609C262.206 180.01 260.224 179.712 259.18 179.712C257.944 179.712 256.538 180.138 255.899 181.629L257.092 182.055C257.369 181.459 258.024 180.82 259.223 180.82C260.379 180.82 260.949 181.432 260.949 182.482V182.524C260.949 183.131 260.331 183.078 258.839 183.27C257.321 183.467 255.665 183.803 255.665 185.678C255.665 187.276 256.9 188.192 258.456 188.192ZM258.647 187.062C257.646 187.062 256.922 186.615 256.922 185.741C256.922 184.783 257.795 184.484 258.775 184.357C259.308 184.293 260.736 184.143 260.949 183.888V185.038C260.949 186.061 260.139 187.062 258.647 187.062ZM268.058 179.818H266.311V177.858H265.054V179.818H263.818V180.884H265.054V185.997C265.054 187.425 266.205 188.107 267.27 188.107C267.739 188.107 268.037 188.021 268.208 187.957L267.952 186.828C267.845 186.849 267.675 186.892 267.398 186.892C266.844 186.892 266.311 186.722 266.311 185.656V180.884H268.058V179.818ZM272.357 188.192C273.785 188.192 274.53 187.425 274.786 186.892H274.85V188H276.107V182.609C276.107 180.01 274.126 179.712 273.081 179.712C271.846 179.712 270.439 180.138 269.8 181.629L270.993 182.055C271.27 181.459 271.926 180.82 273.124 180.82C274.28 180.82 274.85 181.432 274.85 182.482V182.524C274.85 183.131 274.232 183.078 272.741 183.27C271.222 183.467 269.566 183.803 269.566 185.678C269.566 187.276 270.802 188.192 272.357 188.192ZM272.549 187.062C271.547 187.062 270.823 186.615 270.823 185.741C270.823 184.783 271.697 184.484 272.677 184.357C273.209 184.293 274.637 184.143 274.85 183.888V185.038C274.85 186.061 274.04 187.062 272.549 187.062ZM278.402 188H279.659V182.822C279.659 181.714 280.532 180.905 281.725 180.905C282.061 180.905 282.407 180.969 282.492 180.99V179.712C282.349 179.701 282.018 179.69 281.832 179.69C280.852 179.69 280 180.244 279.701 181.054H279.616V179.818H278.402V188ZM286.39 188.192C287.818 188.192 288.564 187.425 288.819 186.892H288.883V188H290.14V182.609C290.14 180.01 288.159 179.712 287.115 179.712C285.879 179.712 284.473 180.138 283.833 181.629L285.027 182.055C285.304 181.459 285.959 180.82 287.157 180.82C288.313 180.82 288.883 181.432 288.883 182.482V182.524C288.883 183.131 288.265 183.078 286.774 183.27C285.256 183.467 283.599 183.803 283.599 185.678C283.599 187.276 284.835 188.192 286.39 188.192ZM286.582 187.062C285.581 187.062 284.856 186.615 284.856 185.741C284.856 184.783 285.73 184.484 286.71 184.357C287.243 184.293 288.67 184.143 288.883 183.888V185.038C288.883 186.061 288.074 187.062 286.582 187.062ZM294.31 186.509H292.946L292.882 187.105C292.728 188.549 292.424 189.987 292.286 190.663H293.244C293.5 189.939 294.043 188.298 294.225 187.084L294.31 186.509ZM301.028 188H304.97C307.548 188 308.613 186.743 308.613 185.102C308.613 183.376 307.42 182.439 306.419 182.375V182.268C307.356 182.013 308.187 181.395 308.187 179.989C308.187 178.391 307.122 177.091 304.842 177.091H301.028V188ZM302.349 186.828V183.036H305.034C306.461 183.036 307.356 183.994 307.356 185.102C307.356 186.061 306.696 186.828 304.97 186.828H302.349ZM302.349 181.885V178.263H304.842C306.291 178.263 306.93 179.03 306.93 179.989C306.93 181.139 305.993 181.885 304.799 181.885H302.349ZM313.021 188.192C314.449 188.192 315.194 187.425 315.45 186.892H315.514V188H316.771V182.609C316.771 180.01 314.79 179.712 313.746 179.712C312.51 179.712 311.104 180.138 310.464 181.629L311.657 182.055C311.934 181.459 312.59 180.82 313.788 180.82C314.944 180.82 315.514 181.432 315.514 182.482V182.524C315.514 183.131 314.896 183.078 313.405 183.27C311.887 183.467 310.23 183.803 310.23 185.678C310.23 187.276 311.466 188.192 313.021 188.192ZM313.213 187.062C312.211 187.062 311.487 186.615 311.487 185.741C311.487 184.783 312.361 184.484 313.341 184.357C313.873 184.293 315.301 184.143 315.514 183.888V185.038C315.514 186.061 314.704 187.062 313.213 187.062ZM322.155 188.17C323.732 188.17 324.264 187.19 324.541 186.743H324.691V188H325.905V177.091H324.648V181.118H324.541C324.264 180.692 323.774 179.712 322.176 179.712C320.11 179.712 318.682 181.352 318.682 183.93C318.682 186.53 320.11 188.17 322.155 188.17ZM322.326 187.041C320.749 187.041 319.939 185.656 319.939 183.909C319.939 182.183 320.728 180.841 322.326 180.841C323.86 180.841 324.669 182.077 324.669 183.909C324.669 185.763 323.838 187.041 322.326 187.041ZM331.472 188.17C333.048 188.17 333.581 187.19 333.858 186.743H334.007V188H335.222V177.091H333.964V181.118H333.858C333.581 180.692 333.091 179.712 331.493 179.712C329.426 179.712 327.998 181.352 327.998 183.93C327.998 186.53 329.426 188.17 331.472 188.17ZM331.642 187.041C330.065 187.041 329.256 185.656 329.256 183.909C329.256 182.183 330.044 180.841 331.642 180.841C333.176 180.841 333.986 182.077 333.986 183.909C333.986 185.763 333.155 187.041 331.642 187.041ZM340.106 188.192C341.534 188.192 342.279 187.425 342.535 186.892H342.599V188H343.856V182.609C343.856 180.01 341.875 179.712 340.831 179.712C339.595 179.712 338.188 180.138 337.549 181.629L338.742 182.055C339.019 181.459 339.675 180.82 340.873 180.82C342.029 180.82 342.599 181.432 342.599 182.482V182.524C342.599 183.131 341.981 183.078 340.49 183.27C338.972 183.467 337.315 183.803 337.315 185.678C337.315 187.276 338.551 188.192 340.106 188.192ZM340.298 187.062C339.296 187.062 338.572 186.615 338.572 185.741C338.572 184.783 339.446 184.484 340.426 184.357C340.958 184.293 342.386 184.143 342.599 183.888V185.038C342.599 186.061 341.789 187.062 340.298 187.062Z" fill="#767676"/>
<circle cx="185" cy="45" r="20" fill="#FFB400"/>
<g clip-path="url(#clip0_2_995)">
<path d="M177.5 39.75L182.75 37.5L187.25 39.75L191.977 37.7243C192.034 37.6998 192.097 37.6899 192.158 37.6954C192.22 37.7009 192.28 37.7217 192.332 37.7559C192.383 37.7901 192.426 37.8367 192.455 37.8913C192.485 37.946 192.5 38.0072 192.5 38.0693V50.25L187.25 52.5L182.75 50.25L178.023 52.2758C177.966 52.3002 177.903 52.3101 177.842 52.3046C177.78 52.2991 177.72 52.2783 177.668 52.2441C177.617 52.2099 177.574 52.1633 177.545 52.1087C177.515 52.054 177.5 51.9928 177.5 51.9307V39.75ZM187.25 50.823V41.382L187.201 41.403L182.75 39.177V48.618L182.799 48.597L187.25 50.823Z" fill="#2B2B2B"/>
</g>
<defs>
<clipPath id="clip0_2_995">
<rect width="18" height="18" fill="white" transform="translate(176 36)"/>
</clipPath>
</defs>
</svg>
