<svg width="370" height="210" viewBox="0 0 370 210" fill="none" xmlns="http://www.w3.org/2000/svg">
<rect width="370" height="210" fill="white"/>
<path d="M33.5781 103.348H35.483C35.4254 101.251 33.5717 99.7301 30.9126 99.7301C28.2855 99.7301 26.272 101.232 26.272 103.489C26.272 105.31 27.576 106.378 29.679 106.947L31.2259 107.369C32.6257 107.739 33.706 108.2 33.706 109.363C33.706 110.641 32.4851 111.485 30.804 111.485C29.2827 111.485 28.017 110.808 27.902 109.382H25.9205C26.0483 111.754 27.8828 113.217 30.8168 113.217C33.8913 113.217 35.6619 111.6 35.6619 109.382C35.6619 107.023 33.5589 106.109 31.897 105.7L30.6186 105.368C29.5959 105.106 28.2344 104.626 28.2408 103.374C28.2408 102.261 29.2571 101.437 30.8679 101.437C32.37 101.437 33.4375 102.14 33.5781 103.348ZM44.0882 108.928C44.0946 110.597 42.8546 111.389 41.7807 111.389C40.5982 111.389 39.78 110.533 39.78 109.197V103.182H37.8688V109.427C37.8688 111.862 39.2047 113.128 41.0904 113.128C42.5669 113.128 43.5705 112.348 44.0243 111.3H44.1266V113H46.0059V103.182H44.0882V108.928ZM48.5739 116.682H50.4851V111.472H50.6001C50.9453 112.099 51.6484 113.192 53.4382 113.192C55.8161 113.192 57.5419 111.287 57.5419 108.11C57.5419 104.927 55.7905 103.054 53.419 103.054C51.5973 103.054 50.9389 104.166 50.6001 104.773H50.4403V103.182H48.5739V116.682ZM50.4467 108.091C50.4467 106.039 51.3416 104.678 53.0099 104.678C54.7422 104.678 55.6115 106.141 55.6115 108.091C55.6115 110.06 54.7166 111.562 53.0099 111.562C51.3672 111.562 50.4467 110.156 50.4467 108.091ZM59.6832 116.682H61.5945V111.472H61.7095C62.0547 112.099 62.7578 113.192 64.5476 113.192C66.9254 113.192 68.6513 111.287 68.6513 108.11C68.6513 104.927 66.8999 103.054 64.5284 103.054C62.7067 103.054 62.0483 104.166 61.7095 104.773H61.5497V103.182H59.6832V116.682ZM61.5561 108.091C61.5561 106.039 62.451 104.678 64.1193 104.678C65.8516 104.678 66.7209 106.141 66.7209 108.091C66.7209 110.06 65.826 111.562 64.1193 111.562C62.4766 111.562 61.5561 110.156 61.5561 108.091ZM74.9283 113.198C77.696 113.198 79.505 111.172 79.505 108.136C79.505 105.08 77.696 103.054 74.9283 103.054C72.1605 103.054 70.3516 105.08 70.3516 108.136C70.3516 111.172 72.1605 113.198 74.9283 113.198ZM74.9347 111.594C73.1257 111.594 72.282 110.015 72.282 108.129C72.282 106.25 73.1257 104.652 74.9347 104.652C76.7308 104.652 77.5746 106.25 77.5746 108.129C77.5746 110.015 76.7308 111.594 74.9347 111.594ZM81.6383 113H83.5495V107.004C83.5495 105.719 84.5403 104.793 85.8954 104.793C86.2917 104.793 86.7392 104.863 86.8926 104.908V103.08C86.7008 103.054 86.3237 103.035 86.0808 103.035C84.9302 103.035 83.9458 103.687 83.5879 104.741H83.4856V103.182H81.6383V113ZM93.7097 103.182H91.6962V100.83H89.785V103.182H88.3468V104.716H89.785V110.513C89.7786 112.297 91.1401 113.16 92.6486 113.128C93.2559 113.121 93.665 113.006 93.8887 112.923L93.5435 111.344C93.4157 111.37 93.1792 111.428 92.8723 111.428C92.2523 111.428 91.6962 111.223 91.6962 110.117V104.716H93.7097V103.182ZM107.881 103.348H109.786C109.728 101.251 107.874 99.7301 105.215 99.7301C102.588 99.7301 100.575 101.232 100.575 103.489C100.575 105.31 101.879 106.378 103.982 106.947L105.529 107.369C106.928 107.739 108.009 108.2 108.009 109.363C108.009 110.641 106.788 111.485 105.107 111.485C103.585 111.485 102.32 110.808 102.205 109.382H100.223C100.351 111.754 102.186 113.217 105.119 113.217C108.194 113.217 109.965 111.6 109.965 109.382C109.965 107.023 107.862 106.109 106.2 105.7L104.921 105.368C103.899 105.106 102.537 104.626 102.544 103.374C102.544 102.261 103.56 101.437 105.171 101.437C106.673 101.437 107.74 102.14 107.881 103.348ZM116.403 113.198C118.544 113.198 120.059 112.143 120.494 110.545L118.685 110.219C118.34 111.146 117.509 111.619 116.422 111.619C114.786 111.619 113.686 110.558 113.635 108.666H120.615V107.989C120.615 104.441 118.493 103.054 116.269 103.054C113.533 103.054 111.73 105.138 111.73 108.155C111.73 111.204 113.507 113.198 116.403 113.198ZM113.642 107.234C113.718 105.841 114.728 104.633 116.282 104.633C117.765 104.633 118.736 105.732 118.743 107.234H113.642ZM122.736 113H124.647V107.004C124.647 105.719 125.638 104.793 126.993 104.793C127.389 104.793 127.837 104.863 127.99 104.908V103.08C127.798 103.054 127.421 103.035 127.178 103.035C126.028 103.035 125.044 103.687 124.686 104.741H124.583V103.182H122.736V113ZM138.342 103.182H136.29L133.81 110.737H133.708L131.221 103.182H129.17L132.736 113H134.782L138.342 103.182ZM140.138 113H142.05V103.182H140.138V113ZM141.104 101.667C141.762 101.667 142.312 101.156 142.312 100.529C142.312 99.9027 141.762 99.3849 141.104 99.3849C140.439 99.3849 139.895 99.9027 139.895 100.529C139.895 101.156 140.439 101.667 141.104 101.667ZM148.756 113.198C151.077 113.198 152.579 111.805 152.79 109.893H150.93C150.687 110.955 149.862 111.581 148.769 111.581C147.152 111.581 146.11 110.232 146.11 108.091C146.11 105.988 147.171 104.665 148.769 104.665C149.984 104.665 150.725 105.432 150.93 106.352H152.79C152.585 104.371 150.968 103.054 148.737 103.054C145.969 103.054 144.18 105.138 144.18 108.136C144.18 111.095 145.906 113.198 148.756 113.198ZM159.065 113.198C161.206 113.198 162.721 112.143 163.156 110.545L161.347 110.219C161.002 111.146 160.171 111.619 159.084 111.619C157.448 111.619 156.349 110.558 156.297 108.666H163.278V107.989C163.278 104.441 161.155 103.054 158.931 103.054C156.195 103.054 154.393 105.138 154.393 108.155C154.393 111.204 156.17 113.198 159.065 113.198ZM156.304 107.234C156.381 105.841 157.39 104.633 158.944 104.633C160.427 104.633 161.398 105.732 161.405 107.234H156.304ZM172.755 105.579C172.359 104.051 171.164 103.054 169.042 103.054C166.824 103.054 165.251 104.224 165.251 105.962C165.251 107.356 166.095 108.283 167.936 108.692L169.598 109.056C170.544 109.267 170.985 109.689 170.985 110.303C170.985 111.063 170.173 111.658 168.92 111.658C167.776 111.658 167.041 111.165 166.811 110.2L164.963 110.482C165.283 112.22 166.728 113.198 168.933 113.198C171.304 113.198 172.947 111.939 172.947 110.162C172.947 108.775 172.065 107.918 170.262 107.503L168.703 107.145C167.623 106.889 167.156 106.525 167.162 105.86C167.156 105.106 167.974 104.569 169.061 104.569C170.25 104.569 170.799 105.227 171.023 105.886L172.755 105.579ZM176.308 105.975C177.004 105.975 177.586 105.406 177.586 104.697C177.586 104 177.004 103.425 176.308 103.425C175.605 103.425 175.029 104 175.029 104.697C175.029 105.406 175.605 105.975 176.308 105.975ZM176.308 113.121C177.004 113.121 177.586 112.553 177.586 111.843C177.586 111.146 177.004 110.571 176.308 110.571C175.605 110.571 175.029 111.146 175.029 111.843C175.029 112.553 175.605 113.121 176.308 113.121Z" fill="#767676"/>
<path d="M305.594 100.091H304.273L301.546 101.902V103.244L304.209 101.476H304.273V111H305.594V100.091ZM312.141 111.149C314.218 111.149 315.742 109.615 315.742 107.527C315.742 105.412 314.272 103.862 312.269 103.862C311.534 103.862 310.82 104.123 310.372 104.48H310.309L310.692 101.263H315.252V100.091H309.584L308.924 105.46L310.159 105.609C310.612 105.284 311.384 105.05 312.056 105.055C313.446 105.066 314.463 106.121 314.463 107.548C314.463 108.949 313.483 109.977 312.141 109.977C311.022 109.977 310.133 109.258 310.032 108.273H308.753C308.833 109.935 310.266 111.149 312.141 111.149ZM321.544 111.149C323.659 111.149 325.23 109.823 325.23 108.038C325.23 106.653 324.41 105.647 323.035 105.418V105.332C324.138 104.997 324.825 104.091 324.825 102.861C324.825 101.316 323.605 99.9418 321.586 99.9418C319.701 99.9418 318.135 101.103 318.071 102.818H319.349C319.397 101.732 320.431 101.092 321.565 101.092C322.769 101.092 323.547 101.822 323.547 102.925C323.547 104.075 322.646 104.821 321.352 104.821H320.479V105.993H321.352C323.009 105.993 323.93 106.835 323.93 108.038C323.93 109.194 322.923 109.977 321.523 109.977C320.26 109.977 319.259 109.327 319.179 108.273H317.836C317.916 109.988 319.429 111.149 321.544 111.149ZM331.031 111.149C333.236 111.176 334.674 109.514 334.674 107.484C334.674 105.375 333.113 103.862 331.244 103.862C330.12 103.862 329.156 104.411 328.559 105.311H328.474C328.479 102.653 329.513 101.114 331.201 101.114C332.352 101.114 333.044 101.838 333.289 102.818H334.589C334.323 101.124 333.034 99.9418 331.201 99.9418C328.746 99.9418 327.238 102.115 327.238 105.972C327.238 110.004 329.241 111.128 331.031 111.149ZM331.031 109.977C329.662 109.977 328.66 108.811 328.666 107.506C328.671 106.201 329.72 105.034 331.073 105.034C332.41 105.034 333.396 106.131 333.396 107.484C333.396 108.869 332.368 109.977 331.031 109.977ZM340.242 99.9418C338.026 99.9151 336.598 101.582 336.598 103.585C336.598 105.695 338.154 107.207 340.029 107.207C341.158 107.207 342.117 106.653 342.714 105.759H342.799C342.799 108.443 341.755 109.977 340.071 109.977C338.921 109.977 338.218 109.253 337.983 108.251H336.684C336.939 109.977 338.239 111.149 340.071 111.149C342.522 111.149 344.035 108.976 344.035 105.098C344.035 101.092 342.032 99.9631 340.242 99.9418ZM340.242 101.114C341.606 101.114 342.607 102.286 342.607 103.564C342.607 104.864 341.542 106.036 340.199 106.036C338.857 106.036 337.877 104.949 337.877 103.585C337.877 102.222 338.9 101.114 340.242 101.114Z" fill="#767676"/>
<path d="M37.8097 143.455C37.8097 139.268 35.304 136.73 31.9162 136.73C28.5156 136.73 26.0163 139.268 26.0163 143.455C26.0163 147.635 28.5156 150.179 31.9162 150.179C35.304 150.179 37.8097 147.641 37.8097 143.455ZM35.8537 143.455C35.8537 146.644 34.1662 148.376 31.9162 148.376C29.6598 148.376 27.9787 146.644 27.9787 143.455C27.9787 140.265 29.6598 138.533 31.9162 138.533C34.1662 138.533 35.8537 140.265 35.8537 143.455ZM44.7914 140.182H42.6756V139.3C42.6756 138.43 43.0336 137.957 43.9668 137.957C44.3631 137.957 44.6444 138.047 44.8233 138.104L45.2708 136.558C45.0023 136.455 44.4462 136.295 43.6728 136.295C42.1195 136.295 40.758 137.203 40.758 139.044V140.182H39.2431V141.716H40.758V150H42.6756V141.716H44.7914V140.182ZM51.4359 140.182H49.3201V139.3C49.3201 138.43 49.6781 137.957 50.6113 137.957C51.0076 137.957 51.2889 138.047 51.4679 138.104L51.9153 136.558C51.6468 136.455 51.0907 136.295 50.3173 136.295C48.764 136.295 47.4025 137.203 47.4025 139.044V140.182H45.8876V141.716H47.4025V150H49.3201V141.716H51.4359V140.182ZM53.4078 150H55.3191V140.182H53.4078V150ZM54.373 138.667C55.0314 138.667 55.5811 138.156 55.5811 137.529C55.5811 136.903 55.0314 136.385 54.373 136.385C53.7083 136.385 53.165 136.903 53.165 137.529C53.165 138.156 53.7083 138.667 54.373 138.667ZM62.0259 150.198C64.3462 150.198 65.8484 148.805 66.0593 146.893H64.1992C63.9563 147.955 63.1317 148.581 62.0387 148.581C60.4215 148.581 59.3796 147.232 59.3796 145.091C59.3796 142.988 60.4407 141.665 62.0387 141.665C63.2532 141.665 63.9947 142.432 64.1992 143.352H66.0593C65.8548 141.371 64.2376 140.054 62.0067 140.054C59.239 140.054 57.4492 142.138 57.4492 145.136C57.4492 148.095 59.1751 150.198 62.0259 150.198ZM72.3347 150.198C74.476 150.198 75.9909 149.143 76.4256 147.545L74.6167 147.219C74.2715 148.146 73.4405 148.619 72.3539 148.619C70.7175 148.619 69.6181 147.558 69.5669 145.666H76.5471V144.989C76.5471 141.441 74.4249 140.054 72.2005 140.054C69.4647 140.054 67.6621 142.138 67.6621 145.155C67.6621 148.204 69.4391 150.198 72.3347 150.198ZM69.5733 144.234C69.65 142.841 70.66 141.633 72.2132 141.633C73.6962 141.633 74.6678 142.732 74.6742 144.234H69.5733ZM79.9268 142.975C80.6236 142.975 81.2053 142.406 81.2053 141.697C81.2053 141 80.6236 140.425 79.9268 140.425C79.2237 140.425 78.6484 141 78.6484 141.697C78.6484 142.406 79.2237 142.975 79.9268 142.975ZM79.9268 150.121C80.6236 150.121 81.2053 149.553 81.2053 148.843C81.2053 148.146 80.6236 147.571 79.9268 147.571C79.2237 147.571 78.6484 148.146 78.6484 148.843C78.6484 149.553 79.2237 150.121 79.9268 150.121Z" fill="#767676"/>
<path d="M189.4 148.254H190.593V145.335H193.513V144.142H190.593V141.223H189.4V144.142H186.481V145.335H189.4V148.254ZM199.48 149.149C201.557 149.149 203.081 147.615 203.081 145.527C203.081 143.412 201.61 141.862 199.608 141.862C198.873 141.862 198.159 142.123 197.711 142.48H197.647L198.031 139.263H202.591V138.091H196.923L196.262 143.46L197.498 143.609C197.951 143.284 198.723 143.05 199.395 143.055C200.785 143.066 201.802 144.121 201.802 145.548C201.802 146.949 200.822 147.977 199.48 147.977C198.361 147.977 197.472 147.258 197.37 146.273H196.092C196.172 147.935 197.605 149.149 199.48 149.149ZM208.691 149.149C210.87 149.149 212.388 147.876 212.398 146.102C212.388 144.723 211.466 143.551 210.289 143.332V143.268C211.312 143.002 211.983 142.001 211.994 140.839C211.983 139.178 210.587 137.942 208.691 137.942C206.773 137.942 205.378 139.178 205.388 140.839C205.378 142.001 206.049 143.002 207.093 143.268V143.332C205.894 143.551 204.973 144.723 204.984 146.102C204.973 147.876 206.491 149.149 208.691 149.149ZM208.691 147.977C207.194 147.977 206.273 147.21 206.283 146.038C206.273 144.808 207.29 143.929 208.691 143.929C210.071 143.929 211.088 144.808 211.099 146.038C211.088 147.21 210.166 147.977 208.691 147.977ZM208.691 142.8C207.498 142.8 206.656 142.054 206.667 140.925C206.656 139.817 207.466 139.092 208.691 139.092C209.895 139.092 210.704 139.817 210.715 140.925C210.704 142.054 209.863 142.8 208.691 142.8ZM219.127 144.398C219.127 147.082 219.852 149.32 221.151 151.216H222.259C221.237 149.81 220.427 146.933 220.427 144.398C220.427 141.862 221.237 138.986 222.259 137.58H221.151C219.852 139.476 219.127 141.713 219.127 144.398ZM227.651 149.149C230.059 149.149 231.444 147.109 231.444 143.545C231.444 140.009 230.038 137.942 227.651 137.942C225.265 137.942 223.859 140.009 223.859 143.545C223.859 147.109 225.244 149.149 227.651 149.149ZM227.651 147.977C226.064 147.977 225.137 146.385 225.137 143.545C225.137 140.712 226.075 139.092 227.651 139.092C229.228 139.092 230.166 140.712 230.166 143.545C230.166 146.385 229.239 147.977 227.651 147.977ZM233.468 149H240.35V147.828H235.279V147.743L237.729 145.122C239.604 143.114 240.158 142.176 240.158 140.967C240.158 139.284 238.795 137.942 236.877 137.942C234.965 137.942 233.511 139.241 233.511 141.159H234.768C234.768 139.918 235.572 139.092 236.835 139.092C238.017 139.092 238.923 139.817 238.923 140.967C238.923 141.974 238.331 142.72 237.069 144.099L233.468 148.041V149ZM246.385 138.091H245.064L242.337 139.902V141.244L245 139.476H245.064V149H246.385V138.091ZM252.229 144.398C252.229 141.713 251.504 139.476 250.205 137.58H249.097C250.119 138.986 250.929 141.862 250.929 144.398C250.929 146.933 250.119 149.81 249.097 151.216H250.205C251.504 149.32 252.229 147.082 252.229 144.398ZM258.643 149.149C260.758 149.149 262.33 147.823 262.33 146.038C262.33 144.653 261.509 143.647 260.135 143.418V143.332C261.238 142.997 261.925 142.091 261.925 140.861C261.925 139.316 260.705 137.942 258.686 137.942C256.8 137.942 255.234 139.103 255.17 140.818H256.449C256.497 139.732 257.53 139.092 258.665 139.092C259.869 139.092 260.646 139.822 260.646 140.925C260.646 142.075 259.746 142.821 258.452 142.821H257.578V143.993H258.452C260.108 143.993 261.03 144.835 261.03 146.038C261.03 147.194 260.023 147.977 258.622 147.977C257.36 147.977 256.358 147.327 256.278 146.273H254.936C255.016 147.988 256.529 149.149 258.643 149.149ZM267.917 149.149C269.995 149.149 271.518 147.615 271.518 145.527C271.518 143.412 270.048 141.862 268.045 141.862C267.31 141.862 266.596 142.123 266.149 142.48H266.085L266.468 139.263H271.028V138.091H265.36L264.7 143.46L265.936 143.609C266.388 143.284 267.161 143.05 267.832 143.055C269.222 143.066 270.24 144.121 270.24 145.548C270.24 146.949 269.26 147.977 267.917 147.977C266.799 147.977 265.909 147.258 265.808 146.273H264.529C264.609 147.935 266.042 149.149 267.917 149.149ZM277.256 149.149C279.462 149.176 280.9 147.514 280.9 145.484C280.9 143.375 279.339 141.862 277.469 141.862C276.345 141.862 275.381 142.411 274.785 143.311H274.699C274.705 140.653 275.738 139.114 277.427 139.114C278.577 139.114 279.27 139.838 279.515 140.818H280.815C280.548 139.124 279.259 137.942 277.427 137.942C274.971 137.942 273.464 140.115 273.464 143.972C273.464 148.004 275.467 149.128 277.256 149.149ZM277.256 147.977C275.887 147.977 274.886 146.811 274.891 145.506C274.897 144.201 275.946 143.034 277.299 143.034C278.636 143.034 279.621 144.131 279.621 145.484C279.621 146.869 278.593 147.977 277.256 147.977ZM290.622 149.149C292.7 149.149 294.223 147.615 294.223 145.527C294.223 143.412 292.753 141.862 290.75 141.862C290.015 141.862 289.301 142.123 288.854 142.48H288.79L289.173 139.263H293.733V138.091H288.066L287.405 143.46L288.641 143.609C289.094 143.284 289.866 143.05 290.537 143.055C291.927 143.066 292.945 144.121 292.945 145.548C292.945 146.949 291.965 147.977 290.622 147.977C289.504 147.977 288.614 147.258 288.513 146.273H287.235C287.314 147.935 288.747 149.149 290.622 149.149ZM299.834 149.149C302.012 149.149 303.53 147.876 303.541 146.102C303.53 144.723 302.609 143.551 301.432 143.332V143.268C302.454 143.002 303.125 142.001 303.136 140.839C303.125 139.178 301.73 137.942 299.834 137.942C297.916 137.942 296.52 139.178 296.531 140.839C296.52 142.001 297.191 143.002 298.236 143.268V143.332C297.037 143.551 296.116 144.723 296.126 146.102C296.116 147.876 297.634 149.149 299.834 149.149ZM299.834 147.977C298.337 147.977 297.415 147.21 297.426 146.038C297.415 144.808 298.433 143.929 299.834 143.929C301.213 143.929 302.231 144.808 302.241 146.038C302.231 147.21 301.309 147.977 299.834 147.977ZM299.834 142.8C298.64 142.8 297.799 142.054 297.809 140.925C297.799 139.817 298.608 139.092 299.834 139.092C301.037 139.092 301.847 139.817 301.858 140.925C301.847 142.054 301.005 142.8 299.834 142.8ZM305.923 149H307.308L312.166 139.327V138.091H305.178V139.263H310.803V139.348L305.923 149ZM318.37 149H325.253V147.828H320.182V147.743L322.632 145.122C324.507 143.114 325.061 142.176 325.061 140.967C325.061 139.284 323.697 137.942 321.78 137.942C319.867 137.942 318.413 139.241 318.413 141.159H319.67C319.67 139.918 320.475 139.092 321.737 139.092C322.919 139.092 323.825 139.817 323.825 140.967C323.825 141.974 323.234 142.72 321.971 144.099L318.37 148.041V149ZM331.139 149.149C333.253 149.149 334.825 147.823 334.825 146.038C334.825 144.653 334.004 143.647 332.63 143.418V143.332C333.733 142.997 334.42 142.091 334.42 140.861C334.42 139.316 333.2 137.942 331.181 137.942C329.296 137.942 327.729 139.103 327.666 140.818H328.944C328.992 139.732 330.025 139.092 331.16 139.092C332.364 139.092 333.141 139.822 333.141 140.925C333.141 142.075 332.241 142.821 330.947 142.821H330.073V143.993H330.947C332.603 143.993 333.525 144.835 333.525 146.038C333.525 147.194 332.518 147.977 331.117 147.977C329.855 147.977 328.853 147.327 328.774 146.273H327.431C327.511 147.988 329.024 149.149 331.139 149.149ZM340.412 149.149C342.49 149.149 344.013 147.615 344.013 145.527C344.013 143.412 342.543 141.862 340.54 141.862C339.805 141.862 339.091 142.123 338.644 142.48H338.58L338.964 139.263H343.523V138.091H337.856L337.195 143.46L338.431 143.609C338.884 143.284 339.656 143.05 340.327 143.055C341.717 143.066 342.735 144.121 342.735 145.548C342.735 146.949 341.755 147.977 340.412 147.977C339.294 147.977 338.404 147.258 338.303 146.273H337.025C337.104 147.935 338.537 149.149 340.412 149.149Z" fill="#767676"/>
<path d="M26.4382 189H28.4134V184.398H31.098C34.1342 184.398 35.6364 182.563 35.6364 180.147C35.6364 177.737 34.147 175.909 31.1044 175.909H26.4382V189ZM28.4134 182.723V177.603H30.8935C32.8494 177.603 33.6484 178.664 33.6484 180.147C33.6484 181.63 32.8494 182.723 30.919 182.723H28.4134ZM41.907 189.198C44.0483 189.198 45.5632 188.143 45.9979 186.545L44.1889 186.219C43.8438 187.146 43.0128 187.619 41.9261 187.619C40.2898 187.619 39.1903 186.558 39.1392 184.666H46.1193V183.989C46.1193 180.441 43.9972 179.054 41.7727 179.054C39.0369 179.054 37.2344 181.138 37.2344 184.155C37.2344 187.204 39.0114 189.198 41.907 189.198ZM39.1456 183.234C39.2223 181.841 40.2322 180.633 41.7855 180.633C43.2685 180.633 44.2401 181.732 44.2464 183.234H39.1456ZM48.2399 189H50.1511V183.004C50.1511 181.719 51.1419 180.793 52.497 180.793C52.8933 180.793 53.3407 180.863 53.4941 180.908V179.08C53.3024 179.054 52.9252 179.035 52.6824 179.035C51.5318 179.035 50.5474 179.687 50.1895 180.741H50.0872V179.182H48.2399V189ZM62.5053 181.579C62.109 180.051 60.9137 179.054 58.7915 179.054C56.5735 179.054 55.0011 180.224 55.0011 181.962C55.0011 183.356 55.8448 184.283 57.6857 184.692L59.3477 185.056C60.2937 185.267 60.7347 185.689 60.7347 186.303C60.7347 187.063 59.9229 187.658 58.6701 187.658C57.5259 187.658 56.7908 187.165 56.5607 186.2L54.7134 186.482C55.033 188.22 56.4776 189.198 58.6829 189.198C61.0543 189.198 62.6971 187.939 62.6971 186.162C62.6971 184.775 61.815 183.918 60.0124 183.503L58.4528 183.145C57.3725 182.889 56.9059 182.525 56.9123 181.86C56.9059 181.106 57.7241 180.569 58.8107 180.569C59.9996 180.569 60.5494 181.227 60.7731 181.886L62.5053 181.579ZM68.9341 189.198C71.7019 189.198 73.5108 187.172 73.5108 184.136C73.5108 181.08 71.7019 179.054 68.9341 179.054C66.1664 179.054 64.3574 181.08 64.3574 184.136C64.3574 187.172 66.1664 189.198 68.9341 189.198ZM68.9405 187.594C67.1316 187.594 66.2878 186.015 66.2878 184.129C66.2878 182.25 67.1316 180.652 68.9405 180.652C70.7367 180.652 71.5804 182.25 71.5804 184.129C71.5804 186.015 70.7367 187.594 68.9405 187.594ZM77.5554 183.17C77.5554 181.604 78.5142 180.71 79.8438 180.71C81.1413 180.71 81.9276 181.56 81.9276 182.985V189H83.8388V182.755C83.8388 180.326 82.5028 179.054 80.4957 179.054C79.0192 179.054 78.054 179.738 77.6001 180.78H77.4787V179.182H75.6442V189H77.5554V183.17ZM89.2592 189.217C90.8828 189.217 91.7969 188.393 92.1612 187.658H92.2379V189H94.1044V182.48C94.1044 179.623 91.8544 179.054 90.2947 179.054C88.5178 179.054 86.8814 179.77 86.2422 181.56L88.0384 181.969C88.3196 181.272 89.0355 180.601 90.3203 180.601C91.554 180.601 92.1868 181.246 92.1868 182.359V182.403C92.1868 183.1 91.4709 183.087 89.7067 183.292C87.8466 183.509 85.9418 183.995 85.9418 186.226C85.9418 188.156 87.3928 189.217 89.2592 189.217ZM89.6747 187.683C88.5945 187.683 87.8146 187.197 87.8146 186.251C87.8146 185.229 88.7223 184.864 89.8281 184.717C90.4482 184.634 91.9183 184.468 92.1932 184.193V185.459C92.1932 186.622 91.2663 187.683 89.6747 187.683ZM98.5613 175.909H96.65V189H98.5613V175.909ZM102.392 181.975C103.088 181.975 103.67 181.406 103.67 180.697C103.67 180 103.088 179.425 102.392 179.425C101.689 179.425 101.113 180 101.113 180.697C101.113 181.406 101.689 181.975 102.392 181.975ZM102.392 189.121C103.088 189.121 103.67 188.553 103.67 187.843C103.67 187.146 103.088 186.571 102.392 186.571C101.689 186.571 101.113 187.146 101.113 187.843C101.113 188.553 101.689 189.121 102.392 189.121Z" fill="#767676"/>
<path d="M189.4 186.254H190.593V183.335H193.513V182.142H190.593V179.223H189.4V182.142H186.481V183.335H189.4V186.254ZM199.48 187.149C201.557 187.149 203.081 185.615 203.081 183.527C203.081 181.412 201.61 179.862 199.608 179.862C198.873 179.862 198.159 180.123 197.711 180.48H197.647L198.031 177.263H202.591V176.091H196.923L196.262 181.46L197.498 181.609C197.951 181.284 198.723 181.05 199.395 181.055C200.785 181.066 201.802 182.121 201.802 183.548C201.802 184.949 200.822 185.977 199.48 185.977C198.361 185.977 197.472 185.258 197.37 184.273H196.092C196.172 185.935 197.605 187.149 199.48 187.149ZM208.691 187.149C210.87 187.149 212.388 185.876 212.398 184.102C212.388 182.723 211.466 181.551 210.289 181.332V181.268C211.312 181.002 211.983 180.001 211.994 178.839C211.983 177.178 210.587 175.942 208.691 175.942C206.773 175.942 205.378 177.178 205.388 178.839C205.378 180.001 206.049 181.002 207.093 181.268V181.332C205.894 181.551 204.973 182.723 204.984 184.102C204.973 185.876 206.491 187.149 208.691 187.149ZM208.691 185.977C207.194 185.977 206.273 185.21 206.283 184.038C206.273 182.808 207.29 181.929 208.691 181.929C210.071 181.929 211.088 182.808 211.099 184.038C211.088 185.21 210.166 185.977 208.691 185.977ZM208.691 180.8C207.498 180.8 206.656 180.054 206.667 178.925C206.656 177.817 207.466 177.092 208.691 177.092C209.895 177.092 210.704 177.817 210.715 178.925C210.704 180.054 209.863 180.8 208.691 180.8ZM219.127 182.398C219.127 185.082 219.852 187.32 221.151 189.216H222.259C221.237 187.81 220.427 184.933 220.427 182.398C220.427 179.862 221.237 176.986 222.259 175.58H221.151C219.852 177.476 219.127 179.713 219.127 182.398ZM227.651 187.149C230.059 187.149 231.444 185.109 231.444 181.545C231.444 178.009 230.038 175.942 227.651 175.942C225.265 175.942 223.859 178.009 223.859 181.545C223.859 185.109 225.244 187.149 227.651 187.149ZM227.651 185.977C226.064 185.977 225.137 184.385 225.137 181.545C225.137 178.712 226.075 177.092 227.651 177.092C229.228 177.092 230.166 178.712 230.166 181.545C230.166 184.385 229.239 185.977 227.651 185.977ZM233.468 187H240.35V185.828H235.279V185.743L237.729 183.122C239.604 181.114 240.158 180.176 240.158 178.967C240.158 177.284 238.795 175.942 236.877 175.942C234.965 175.942 233.511 177.241 233.511 179.159H234.768C234.768 177.918 235.572 177.092 236.835 177.092C238.017 177.092 238.923 177.817 238.923 178.967C238.923 179.974 238.331 180.72 237.069 182.099L233.468 186.041V187ZM246.385 176.091H245.064L242.337 177.902V179.244L245 177.476H245.064V187H246.385V176.091ZM252.229 182.398C252.229 179.713 251.504 177.476 250.205 175.58H249.097C250.119 176.986 250.929 179.862 250.929 182.398C250.929 184.933 250.119 187.81 249.097 189.216H250.205C251.504 187.32 252.229 185.082 252.229 182.398ZM258.643 187.149C260.758 187.149 262.33 185.823 262.33 184.038C262.33 182.653 261.509 181.647 260.135 181.418V181.332C261.238 180.997 261.925 180.091 261.925 178.861C261.925 177.316 260.705 175.942 258.686 175.942C256.8 175.942 255.234 177.103 255.17 178.818H256.449C256.497 177.732 257.53 177.092 258.665 177.092C259.869 177.092 260.646 177.822 260.646 178.925C260.646 180.075 259.746 180.821 258.452 180.821H257.578V181.993H258.452C260.108 181.993 261.03 182.835 261.03 184.038C261.03 185.194 260.023 185.977 258.622 185.977C257.36 185.977 256.358 185.327 256.278 184.273H254.936C255.016 185.988 256.529 187.149 258.643 187.149ZM267.917 187.149C269.995 187.149 271.518 185.615 271.518 183.527C271.518 181.412 270.048 179.862 268.045 179.862C267.31 179.862 266.596 180.123 266.149 180.48H266.085L266.468 177.263H271.028V176.091H265.36L264.7 181.46L265.936 181.609C266.388 181.284 267.161 181.05 267.832 181.055C269.222 181.066 270.24 182.121 270.24 183.548C270.24 184.949 269.26 185.977 267.917 185.977C266.799 185.977 265.909 185.258 265.808 184.273H264.529C264.609 185.935 266.042 187.149 267.917 187.149ZM277.256 187.149C279.462 187.176 280.9 185.514 280.9 183.484C280.9 181.375 279.339 179.862 277.469 179.862C276.345 179.862 275.381 180.411 274.785 181.311H274.699C274.705 178.653 275.738 177.114 277.427 177.114C278.577 177.114 279.27 177.838 279.515 178.818H280.815C280.548 177.124 279.259 175.942 277.427 175.942C274.971 175.942 273.464 178.115 273.464 181.972C273.464 186.004 275.467 187.128 277.256 187.149ZM277.256 185.977C275.887 185.977 274.886 184.811 274.891 183.506C274.897 182.201 275.946 181.034 277.299 181.034C278.636 181.034 279.621 182.131 279.621 183.484C279.621 184.869 278.593 185.977 277.256 185.977ZM290.622 187.149C292.7 187.149 294.223 185.615 294.223 183.527C294.223 181.412 292.753 179.862 290.75 179.862C290.015 179.862 289.301 180.123 288.854 180.48H288.79L289.173 177.263H293.733V176.091H288.066L287.405 181.46L288.641 181.609C289.094 181.284 289.866 181.05 290.537 181.055C291.927 181.066 292.945 182.121 292.945 183.548C292.945 184.949 291.965 185.977 290.622 185.977C289.504 185.977 288.614 185.258 288.513 184.273H287.235C287.314 185.935 288.747 187.149 290.622 187.149ZM299.834 187.149C302.012 187.149 303.53 185.876 303.541 184.102C303.53 182.723 302.609 181.551 301.432 181.332V181.268C302.454 181.002 303.125 180.001 303.136 178.839C303.125 177.178 301.73 175.942 299.834 175.942C297.916 175.942 296.52 177.178 296.531 178.839C296.52 180.001 297.191 181.002 298.236 181.268V181.332C297.037 181.551 296.116 182.723 296.126 184.102C296.116 185.876 297.634 187.149 299.834 187.149ZM299.834 185.977C298.337 185.977 297.415 185.21 297.426 184.038C297.415 182.808 298.433 181.929 299.834 181.929C301.213 181.929 302.231 182.808 302.241 184.038C302.231 185.21 301.309 185.977 299.834 185.977ZM299.834 180.8C298.64 180.8 297.799 180.054 297.809 178.925C297.799 177.817 298.608 177.092 299.834 177.092C301.037 177.092 301.847 177.817 301.858 178.925C301.847 180.054 301.005 180.8 299.834 180.8ZM305.923 187H307.308L312.166 177.327V176.091H305.178V177.263H310.803V177.348L305.923 187ZM318.37 187H325.253V185.828H320.182V185.743L322.632 183.122C324.507 181.114 325.061 180.176 325.061 178.967C325.061 177.284 323.697 175.942 321.78 175.942C319.867 175.942 318.413 177.241 318.413 179.159H319.67C319.67 177.918 320.475 177.092 321.737 177.092C322.919 177.092 323.825 177.817 323.825 178.967C323.825 179.974 323.234 180.72 321.971 182.099L318.37 186.041V187ZM331.139 187.149C333.253 187.149 334.825 185.823 334.825 184.038C334.825 182.653 334.004 181.647 332.63 181.418V181.332C333.733 180.997 334.42 180.091 334.42 178.861C334.42 177.316 333.2 175.942 331.181 175.942C329.296 175.942 327.729 177.103 327.666 178.818H328.944C328.992 177.732 330.025 177.092 331.16 177.092C332.364 177.092 333.141 177.822 333.141 178.925C333.141 180.075 332.241 180.821 330.947 180.821H330.073V181.993H330.947C332.603 181.993 333.525 182.835 333.525 184.038C333.525 185.194 332.518 185.977 331.117 185.977C329.855 185.977 328.853 185.327 328.774 184.273H327.431C327.511 185.988 329.024 187.149 331.139 187.149ZM340.412 187.149C342.49 187.149 344.013 185.615 344.013 183.527C344.013 181.412 342.543 179.862 340.54 179.862C339.805 179.862 339.091 180.123 338.644 180.48H338.58L338.964 177.263H343.523V176.091H337.856L337.195 181.46L338.431 181.609C338.884 181.284 339.656 181.05 340.327 181.055C341.717 181.066 342.735 182.121 342.735 183.548C342.735 184.949 341.755 185.977 340.412 185.977C339.294 185.977 338.404 185.258 338.303 184.273H337.025C337.104 185.935 338.537 187.149 340.412 187.149Z" fill="#767676"/>
<circle cx="185" cy="45" r="20" fill="#FFB400"/>
<g clip-path="url(#clip0_2_984)">
<path d="M180.5 37.5H189.5C189.699 37.5 189.89 37.579 190.03 37.7197C190.171 37.8603 190.25 38.0511 190.25 38.25V51.75C190.25 51.9489 190.171 52.1397 190.03 52.2803C189.89 52.421 189.699 52.5 189.5 52.5H180.5C180.301 52.5 180.11 52.421 179.97 52.2803C179.829 52.1397 179.75 51.9489 179.75 51.75V38.25C179.75 38.0511 179.829 37.8603 179.97 37.7197C180.11 37.579 180.301 37.5 180.5 37.5ZM185 48.75C184.801 48.75 184.61 48.829 184.47 48.9697C184.329 49.1103 184.25 49.3011 184.25 49.5C184.25 49.6989 184.329 49.8897 184.47 50.0303C184.61 50.171 184.801 50.25 185 50.25C185.199 50.25 185.39 50.171 185.53 50.0303C185.671 49.8897 185.75 49.6989 185.75 49.5C185.75 49.3011 185.671 49.1103 185.53 48.9697C185.39 48.829 185.199 48.75 185 48.75Z" fill="#2B2B2B"/>
</g>
<defs>
<clipPath id="clip0_2_984">
<rect width="18" height="18" fill="white" transform="translate(176 36)"/>
</clipPath>
</defs>
</svg>
